<?xml version="1.0" encoding="UTF-8" standalone="no"?>
<!-- Created with Inkscape (http://www.inkscape.org/) -->

<svg
   xmlns:dc="http://purl.org/dc/elements/1.1/"
   xmlns:cc="http://creativecommons.org/ns#"
   xmlns:rdf="http://www.w3.org/1999/02/22-rdf-syntax-ns#"
   xmlns:svg="http://www.w3.org/2000/svg"
   xmlns="http://www.w3.org/2000/svg"
   xmlns:sodipodi="http://sodipodi.sourceforge.net/DTD/sodipodi-0.dtd"
   xmlns:inkscape="http://www.inkscape.org/namespaces/inkscape"
   width="210mm"
   height="297mm"
   viewBox="0 0 210 297"
   version="1.1"
   id="svg8"
   inkscape:version="0.92.4 (5da689c313, 2019-01-14)"
   sodipodi:docname="drawing.svg">
  <defs
     id="defs2" />
  <sodipodi:namedview
     id="base"
     pagecolor="#ffffff"
     bordercolor="#666666"
     borderopacity="1.0"
     inkscape:pageopacity="0.0"
     inkscape:pageshadow="2"
     inkscape:zoom="1.4"
     inkscape:cx="491.77834"
     inkscape:cy="899.38231"
     inkscape:document-units="mm"
     inkscape:current-layer="layer1"
     showgrid="false"
     inkscape:window-width="2560"
     inkscape:window-height="1027"
     inkscape:window-x="-8"
     inkscape:window-y="-8"
     inkscape:window-maximized="1" />
  <metadata
     id="metadata5">
    <rdf:RDF>
      <cc:Work
         rdf:about="">
        <dc:format>image/svg+xml</dc:format>
        <dc:type
           rdf:resource="http://purl.org/dc/dcmitype/StillImage" />
        <dc:title></dc:title>
      </cc:Work>
    </rdf:RDF>
  </metadata>
  <g
     inkscape:label="Layer 1"
     inkscape:groupmode="layer"
     id="layer1">
    <path
       style="fill:#000000;stroke-width:0.26458335"
       d="m 106.57038,104.52138 c -0.87998,-0.16179 -0.89314,-0.17962 -0.26458,-0.35843 1.04436,-0.29709 1.5875,-0.22816 1.5875,0.20148 0,0.21828 -0.0893,0.3812 -0.19844,0.36205 -0.10914,-0.0192 -0.61516,-0.11145 -1.12448,-0.2051 z m -48.878128,-0.21451 c 0.402183,-0.0608 0.997495,-0.0592 1.322917,0.004 0.325421,0.0628 -0.0036,0.11256 -0.731242,0.11058 -0.727605,-0.002 -0.993857,-0.0534 -0.591675,-0.11419 z m 2.57605,10e-4 c 0.218281,-0.0808 0.548428,-0.26684 0.73366,-0.41341 0.251947,-0.19935 0.294804,-0.15707 0.17013,0.16782 -0.09166,0.23887 -0.421807,0.4249 -0.733661,0.41341 -0.387016,-0.0143 -0.441023,-0.0675 -0.170129,-0.16782 z m 52.061688,-0.0859 c 0.71805,-0.28843 2.14382,-0.36318 4.82373,-0.25291 l 1.98437,0.0816 -1.85208,0.19009 c -2.805,0.2879 -5.69229,0.27692 -4.95602,-0.0188 z m 7.41995,-0.17067 c 0.19099,-0.0764 0.4192,-0.067 0.50712,0.0209 0.0879,0.0879 -0.0683,0.15046 -0.34727,0.13897 -0.30822,-0.0127 -0.37092,-0.0754 -0.15985,-0.15985 z m 0.97565,-0.34833 c 0.0899,-0.14553 0.21603,-0.26459 0.2802,-0.26459 0.0642,0 0.11668,0.11906 0.11668,0.26459 0,0.14552 -0.12609,0.26458 -0.2802,0.26458 -0.15411,0 -0.20662,-0.11906 -0.11668,-0.26458 z m 1.19063,-1.04272 c 0,-0.58422 0.57798,-1.05978 0.73081,-0.6013 0.0711,0.21341 0.42428,0.17436 1.20624,-0.13338 0.60811,-0.23932 1.16519,-0.51657 1.23795,-0.61612 0.0728,-0.0995 0.38815,-0.26078 0.70086,-0.35829 0.78631,-0.24519 1.94497,-1.454239 1.94497,-2.029549 0,-0.26172 -0.12796,-0.81104 -0.28435,-1.22069 -0.26832,-0.70283 -0.30462,-0.71723 -0.64385,-0.25531 -0.19773,0.26923 -0.46908,0.42179 -0.60301,0.33902 -0.13392,-0.0828 -0.38274,0.15511 -0.55292,0.52862 -0.19733,0.43311 -0.45096,0.6248 -0.70015,0.52917 -0.2149,-0.0825 -0.39072,-0.0276 -0.39072,0.12196 0,0.14955 -0.13106,0.1909 -0.29124,0.0919 -0.16044,-0.0992 -0.22628,-0.50479 -0.1466,-0.9032 0.0864,-0.43183 -0.0158,-0.95228 -0.25358,-1.29176 -0.33932,-0.48446 -0.48396,-0.52266 -0.97788,-0.25833 -0.31881,0.17063 -0.60943,0.29011 -0.64581,0.26552 -0.0364,-0.0246 -0.26319,-0.0447 -0.50402,-0.0447 -0.39533,0 -0.39183,0.0509 0.036,0.52365 0.43089,0.47612 0.43475,0.53867 0.0425,0.68918 -0.23725,0.091 -0.35299,0.29235 -0.2572,0.44735 0.11502,0.1861 0.002,0.21143 -0.33225,0.0746 -1.13011,-0.46255 -1.43246,-0.4735 -1.43246,-0.0519 0,1.00925 -1.11888,1.27731 -5.74938,1.37745 -2.44039,0.0528 -4.13942,0.001 -3.77562,-0.11486 0.3638,-0.11595 1.37583,-0.23765 2.24896,-0.27046 1.57384,-0.0591 2.80396,-0.55829 1.37583,-0.55829 -0.39291,0 -0.71437,-0.10418 -0.71437,-0.23152 0,-0.12733 -0.38645,-0.3088 -0.85878,-0.40326 -0.61646,-0.12329 -0.94197,-0.058 -1.15365,0.23151 -0.36747,0.50255 -0.89799,0.52547 -0.89799,0.0388 0,-0.72115 -0.85722,-1.08272 -2.65037,-1.11791 -0.98162,-0.0193 -2.13812,-0.21131 -2.57001,-0.42677 -0.43189,-0.21545 -1.57711,-0.58841 -2.54494,-0.82879 -0.96782,-0.24038 -2.563345,-0.6411 -3.545615,-0.89048 -0.982265,-0.24939 -1.875234,-0.42798 -1.984375,-0.39688 -0.10914,0.0311 -0.198437,-0.11501 -0.198437,-0.3247 0,-0.2097 -0.137459,-0.46622 -0.305464,-0.57005 -0.188164,-0.11629 -0.233688,-0.0727 -0.118549,0.11365 0.120798,0.19545 0.0422,0.2469 -0.222184,0.14544 -0.225005,-0.0863 -0.344067,-0.26221 -0.264584,-0.39081 0.07948,-0.12861 -0.02822,-0.16755 -0.239339,-0.0865 -0.211119,0.081 -0.462455,0.0201 -0.558525,-0.13532 -0.09607,-0.15544 -0.393028,-0.28262 -0.659913,-0.28262 -0.266885,0 -0.553006,-0.17659 -0.635828,-0.39242 -0.08282,-0.21583 -0.318331,-0.32804 -0.523359,-0.24937 -0.205026,0.0787 -0.558216,-0.0424 -0.784866,-0.26904 -0.22665,-0.22665 -0.638879,-0.41209 -0.916059,-0.41209 -0.277182,0 -0.586412,-0.0824 -0.687176,-0.18321 -0.100763,-0.10076 -0.433297,-0.22137 -0.73896,-0.26802 -1.007274,-0.15372 -2.340655,-0.92423 -2.361917,-1.36486 -0.01249,-0.2591 -0.07318,-0.30394 -0.151159,-0.11168 -0.163375,0.4028 -1.033526,-0.0435 -1.734497,-0.88971 -0.507566,-0.61271 -2.758977,-0.98582 -2.966739,-0.49167 -0.06161,0.14654 -0.123245,0.0283 -0.136964,-0.26273 -0.01781,-0.37802 -0.0865,-0.43214 -0.240477,-0.18947 -0.340955,0.53735 -1.025641,0.0999 -1.429856,-0.91355 l -0.370745,-0.92952 -0.462782,0.70629 c -0.315794,0.48196 -0.603589,0.65271 -0.906108,0.53758 -0.35537,-0.13525 -0.377709,-0.10261 -0.112597,0.16446 0.524428,0.5283 0.384644,0.80398 -0.238556,0.47045 -0.476641,-0.25509 -0.544094,-0.23902 -0.414488,0.0987 0.10532,0.27446 -0.05099,0.45504 -0.489048,0.56499 -0.354116,0.0889 -0.643845,0.29297 -0.643845,0.45353 0,0.19623 -0.13012,0.18395 -0.396875,-0.0374 -0.414872,-0.34432 -0.483412,-0.23089 -0.413007,0.6835 0.02617,0.3397 -0.114895,0.55122 -0.367588,0.55122 -0.225515,0 -0.41003,-0.0992 -0.41003,-0.22049 0,-0.12127 -0.164709,-0.22048 -0.366017,-0.22048 -0.201308,0 -0.43471,-0.2627 -0.518673,-0.58376 -0.08396,-0.32107 -0.223883,-0.51253 -0.310941,-0.42548 -0.08706,0.0871 0.02122,0.58788 0.240588,1.11293 0.231497,0.55405 0.286962,0.95464 0.132178,0.95464 -0.146685,0 -0.198199,0.11084 -0.114477,0.2463 0.08373,0.13547 0.03122,0.32109 -0.116676,0.41249 -0.147894,0.0914 -0.268899,0.0401 -0.268899,-0.11401 0,-0.15411 -0.169952,-0.2802 -0.377671,-0.2802 -0.20772,0 -0.594673,-0.27132 -0.859896,-0.60294 -0.265224,-0.33162 -0.671767,-0.56464 -0.903431,-0.51782 -0.231664,0.0468 -0.573664,-0.0986 -0.760002,-0.3231 -0.186336,-0.22452 -0.502809,-0.40822 -0.703271,-0.40822 -0.200464,0 -0.364479,-0.16695 -0.364479,-0.37099 0,-0.29593 -1.232183,-0.95193 -1.788025,-0.95193 -0.266594,0 2.48158,2.55753 2.929274,2.72606 0.263884,0.0993 0.405685,0.30052 0.315116,0.44707 -0.09057,0.14655 -0.03859,0.26646 0.115519,0.26646 0.15411,0 0.278376,0.20835 0.276149,0.46302 -0.0026,0.29464 -0.07474,0.35356 -0.198438,0.16202 -0.106913,-0.16554 -0.659151,-0.49453 -1.227198,-0.73107 -0.568047,-0.23655 -0.953334,-0.50957 -0.856192,-0.60671 0.243967,-0.24396 -1.161534,-1.66851 -1.646203,-1.66851 -0.287491,0 -0.226097,0.17818 0.227915,0.66145 0.341775,0.36381 0.488616,0.66146 0.326318,0.66146 -0.162298,0 -0.373213,-0.12641 -0.468696,-0.2809 -0.20797,-0.3365 -1.4571,-0.88099 -1.872848,-0.81637 -0.162488,0.0253 -0.440785,-0.12921 -0.618437,-0.34327 -0.2486,-0.29955 -0.399592,-0.31766 -0.655476,-0.0786 -0.464431,0.43385 0.6126,1.34376 1.106326,0.93467 0.232926,-0.193 0.330729,-0.18063 0.330729,0.0418 0,0.42795 0.672103,1.07183 1.118809,1.07183 0.199573,0 0.523201,0.14883 0.719172,0.33073 0.289783,0.26897 0.314881,0.25662 0.134422,-0.0661 -0.191244,-0.34205 -0.160055,-0.34671 0.225766,-0.0337 0.554099,0.44946 0.5773,0.8275 0.05079,0.8275 -0.218282,0 -0.400662,0.14883 -0.405289,0.33073 -0.0048,0.18915 -0.171598,0.11512 -0.389596,-0.1729 -0.343647,-0.45405 -0.397709,-0.46056 -0.549059,-0.0661 -0.09233,0.24062 -0.406005,0.43749 -0.697047,0.43749 -0.359251,0 -0.480761,-0.12614 -0.37842,-0.39284 0.09202,-0.2398 -0.07733,-0.5101 -0.434713,-0.69384 -0.482839,-0.24825 -0.52749,-0.23968 -0.254731,0.0489 0.181901,0.19244 0.328081,0.53444 0.324845,0.76 -0.0042,0.28949 -0.161909,0.21557 -0.536416,-0.25136 l -0.530537,-0.66146 0.323551,0.79375 c 0.177953,0.43657 0.449106,0.96487 0.602564,1.17402 0.223724,0.30491 0.181423,0.34364 -0.213465,0.19544 -0.357206,-0.13406 -0.453729,-0.0838 -0.351407,0.1828 0.07759,0.2022 0.0075,0.50121 -0.155747,0.66446 -0.219379,0.21938 -0.213984,0.29683 0.02067,0.29683 0.174625,0 0.3175,0.29765 0.3175,0.66145 0,0.36381 -0.119063,0.66146 -0.264583,0.66146 -0.145521,0 -0.264584,-0.19133 -0.264584,-0.42518 0,-0.27901 -0.14388,-0.36997 -0.418515,-0.26458 -0.230182,0.0883 -0.524103,0.1606 -0.653153,0.1606 -0.129053,0 -0.16424,0.18346 -0.07819,0.40769 0.08605,0.22423 0.05254,0.38995 -0.07445,0.36826 -0.377515,-0.0645 -1.421521,0.32865 -1.421521,0.53529 0,0.10515 -0.357188,0.16994 -0.79375,0.14396 -0.635334,-0.0378 -0.799875,0.0631 -0.824442,0.50556 -0.02593,0.4668 -0.04993,0.47858 -0.154398,0.0757 -0.102216,-0.3942 -0.19345,-0.41919 -0.525166,-0.14389 -0.551227,0.45748 -1.220502,0.52307 -1.461955,0.14327 -0.300932,-0.47335 -0.249566,-0.76921 0.09642,-0.55538 0.193241,0.11943 0.233473,0.0723 0.109513,-0.12827 -0.107772,-0.17438 -0.08165,-0.46066 0.05804,-0.63619 0.139692,-0.17553 0.334005,-0.87251 0.431805,-1.54885 0.148,-1.02348 0.304078,-1.282 0.930688,-1.54155 0.56692,-0.23482 0.833803,-0.60092 1.080564,-1.48227 0.343505,-1.22688 0.973931,-1.68229 0.673883,-0.4868 -0.103608,0.41281 -0.0705,0.62115 0.08358,0.52593 0.140341,-0.0867 0.305253,-0.007 0.366475,0.17627 0.06122,0.18368 0.04981,-0.0232 -0.02537,-0.45979 -0.07517,-0.43656 -0.16043,-1.0914 -0.189463,-1.4552 -0.07802,-0.97775 -0.08888,-0.98217 -0.650184,-0.26459 l -0.517401,0.66146 -0.0059,-0.99705 c -0.0032,-0.54838 -0.247999,-1.90054 -0.543919,-3.0048 -0.295921,-1.10425 -0.461759,-2.24807 -0.368531,-2.54181 0.106963,-0.337 0.06817,-0.47143 -0.10514,-0.36432 -0.151056,0.0933 -0.360802,0.0303 -0.4661,-0.14004 -0.119571,-0.19347 -0.07677,-0.2389 0.114009,-0.12099 0.204483,0.12637 0.299315,-0.0569 0.286866,-0.55444 -0.0154,-0.61596 -0.05279,-0.65593 -0.218316,-0.23339 -0.18529,0.47298 -0.212616,0.47621 -0.378224,0.0447 -0.09818,-0.25585 -0.02111,-0.6899 0.171278,-0.96456 0.319397,-0.456 0.399833,-0.46432 0.925986,-0.0958 0.673881,0.472 0.697291,0.3411 0.193429,-1.08163 -0.293973,-0.83007 -0.496157,-1.04415 -0.937429,-0.99258 -0.319969,0.0374 -0.492197,-0.0482 -0.399339,-0.19844 0.0898,-0.1453 0.02138,-0.26418 -0.152034,-0.26418 -0.388822,0 -1.232001,-0.94567 -1.446906,-1.62277 -0.157345,-0.49575 -0.650264,-0.44535 -0.650264,0.0665 0,0.14552 0.105526,0.19937 0.234503,0.11966 0.128976,-0.0797 0.291235,0.072 0.360574,0.33716 0.198961,0.76084 -0.577109,0.57876 -0.997408,-0.23401 -0.203673,-0.39386 -0.285766,-0.80983 -0.18243,-0.92437 0.103338,-0.11454 0.03422,-0.11961 -0.153607,-0.0113 -0.206758,0.11927 -0.273005,0.41276 -0.167904,0.7439 0.139165,0.43847 0.08454,0.51276 -0.27546,0.37461 -0.246976,-0.0948 -0.495105,-0.17232 -0.551395,-0.17232 -0.05629,0 -0.03382,-0.1786 0.04995,-0.39688 0.08376,-0.21828 0.0205,-0.39687 -0.140595,-0.39687 -0.161091,0 -0.292891,-0.19133 -0.292891,-0.42518 0,-0.28531 -0.142698,-0.37043 -0.43376,-0.25874 -0.470348,0.18049 -1.94749,-0.36669 -1.94749,-0.72142 0,-0.1198 -0.218234,-0.14856 -0.484965,-0.0639 -0.649367,0.2061 -1.12117,-0.80026 -0.792142,-1.68966 0.179981,-0.48651 0.138602,-0.70139 -0.168116,-0.87304 -0.223774,-0.12523 -0.40686,-0.40037 -0.40686,-0.61142 0,-0.21105 -0.119063,-0.38372 -0.264584,-0.38372 -0.14552,0 -0.264583,-0.12701 -0.264583,-0.28224 0,-0.15523 -0.297087,-0.67174 -0.660194,-1.1478 -0.363103,-0.47605 -0.581384,-0.94436 -0.485068,-1.04068 0.158662,-0.15866 -0.288497,-0.28086 -0.765067,-0.20908 -0.104796,0.0158 -0.317344,-0.20825 -0.472331,-0.49784 -0.154985,-0.28959 -0.515726,-0.52653 -0.801648,-0.52653 -0.571982,0 -0.715613,-0.67066 -0.18913,-0.88311 0.18229,-0.0736 0.103122,-0.14282 -0.176389,-0.15434 -0.278914,-0.0115 -0.428776,-0.0992 -0.333023,-0.19498 0.09575,-0.0957 0.04148,-0.33388 -0.120592,-0.52916 -0.219522,-0.26451 -0.211175,-0.35508 0.03273,-0.35508 0.233751,0 0.206018,-0.18526 -0.09695,-0.64766 -0.30271,-0.46199 -0.338529,-0.70071 -0.124949,-0.83271 0.187526,-0.1159 0.01339,-0.34056 -0.465961,-0.60118 l -0.765378,-0.41613 0.926041,-0.17154 c 0.836761,-0.155 0.854387,-0.17489 0.182822,-0.20636 -0.408771,-0.0192 -0.676497,-0.14279 -0.594947,-0.27474 0.08155,-0.13195 -0.09002,-0.1776 -0.38126,-0.10144 -0.571542,0.14946 -0.744405,-0.32161 -0.198802,-0.54176 0.181901,-0.0734 0.01323,-0.14285 -0.374828,-0.15434 -0.388053,-0.0115 -0.745241,-0.11018 -0.79375,-0.21933 -0.146028,-0.32856 -2.015193,-1.65364 -2.332646,-1.65364 -0.198048,0 -0.21404,0.14535 -0.04853,0.4411 0.160739,0.28723 0.143777,0.55144 -0.04863,0.75741 -0.291557,0.31211 -0.407275,0.28399 -1.813557,-0.44081 -0.41247,-0.21259 -0.611193,-0.21694 -0.678551,-0.0149 -0.115747,0.34724 -0.799853,0.13144 -1.516276,-0.47832 -0.843071,-0.71754 -1.309021,-0.93923 -1.058969,-0.50383 0.117377,0.20438 0.403664,0.59736 0.636191,0.87328 0.317447,0.37669 0.340378,0.5305 0.09205,0.61736 -0.181901,0.0636 -0.330729,0.23941 -0.330729,0.39062 0,0.17784 0.127752,0.16891 0.36177,-0.0253 0.27517,-0.22837 0.441267,-0.20446 0.693857,0.0999 0.414602,0.49959 -0.06428,1.19391 -0.823439,1.19391 -0.273225,0 -0.496771,0.13275 -0.496771,0.29501 0,0.17918 -0.262649,0.12292 -0.668933,-0.14329 -0.367911,-0.24106 -0.765228,-0.37878 -0.882922,-0.30605 -0.312534,0.19316 -1.358562,-0.60651 -1.358562,-1.03859 0,-0.53893 -2.266654,-2.01077 -3.254094,-2.11304 -0.465821,-0.0482 -0.906479,-0.11215 -0.979239,-0.142 -0.07276,-0.0299 -0.234122,-0.036 -0.35858,-0.0137 -0.124457,0.0223 -0.413141,-0.1124 -0.641522,-0.2994 -0.303024,-0.24814 -0.280699,-0.13336 0.08262,0.42474 l 0.49785,0.76475 -0.774022,-0.40555 c -0.703101,-0.3684 -0.80329,-0.36574 -1.093449,0.029 -0.287655,0.39133 -0.401007,0.35661 -1.139638,-0.34907 -0.451117,-0.431 -0.764306,-0.92932 -0.695975,-1.10739 0.06833,-0.17806 -0.0179,-0.3923 -0.191629,-0.47607 -0.173726,-0.0838 -0.04798,-0.10262 0.279447,-0.0419 0.899883,0.16697 0.725534,-0.47227 -0.264584,-0.97008 -0.781581,-0.39296 -0.799653,-0.42746 -0.198437,-0.37874 0.408979,0.0332 0.63621,-0.0726 0.595312,-0.27712 -0.0388,-0.19403 0.207257,-0.33073 0.595313,-0.33073 0.363802,0 0.661458,-0.13536 0.661458,-0.30081 0,-0.32806 -2.890043,-0.18613 -3.816246,0.18741 -0.412833,0.1665 -0.47547,0.11801 -0.331657,-0.25676 0.133142,-0.34696 0.06221,-0.43686 -0.284796,-0.36095 -0.254151,0.0556 -0.432327,0.24284 -0.395947,0.4161 0.0861,0.41005 -0.263079,0.40236 -0.713503,-0.0157 -0.252999,-0.23483 -0.304553,-0.23868 -0.177798,-0.0133 0.100571,0.17884 -0.04818,0.43877 -0.340665,0.59531 -0.652791,0.34936 -0.896895,0.35408 -0.686263,0.0133 0.08994,-0.14552 0.04735,-0.26458 -0.09463,-0.26458 -0.141982,0 -0.318203,0.14883 -0.391602,0.33073 -0.0734,0.1819 -0.142852,0.0728 -0.15434,-0.24254 -0.01149,-0.31529 -0.169716,-0.62335 -0.351617,-0.68458 -0.262142,-0.0882 -0.259852,-0.1972 0.01104,-0.52548 0.279308,-0.33848 0.279308,-0.44025 0,-0.55684 -0.251412,-0.10494 -0.215477,-0.22232 0.13592,-0.44396 0.382322,-0.24114 0.414075,-0.37795 0.159046,-0.68524 -0.274014,-0.33017 -0.211214,-0.34338 0.44835,-0.0943 0.617395,0.23316 0.702487,0.22448 0.436266,-0.0445 -0.522375,-0.52777 -0.384848,-0.88847 0.153125,-0.40161 0.26612,0.24084 0.593542,0.43426 0.727604,0.42984 0.134063,-0.004 0.02533,-0.13504 -0.241622,-0.29024 -0.465637,-0.27072 -0.463315,-0.30275 0.05711,-0.7876 0.298368,-0.27797 0.476645,-0.67699 0.39617,-0.8867 -0.250904,-0.65385 0.824889,-1.52029 1.996083,-1.60764 0.591005,-0.0441 1.142048,0.0291 1.22454,0.16254 0.21916,0.35461 0.554835,0.29797 1.025899,-0.17309 0.437802,-0.4378 0.58509,-1.3076 0.178915,-1.05657 -0.130273,0.0805 -0.311349,-0.0477 -0.402392,-0.28498 -0.152924,-0.39852 -0.201964,-0.3984 -0.64387,0.002 -0.529268,0.47893 -0.956658,0.5815 -0.701255,0.16825 0.08994,-0.14552 -0.01618,-0.26458 -0.235821,-0.26458 -0.219639,0 -0.517445,0.20836 -0.661792,0.46302 -0.245933,0.43388 -0.288429,0.42972 -0.675255,-0.0661 -0.28003,-0.35896 -0.365233,-0.39142 -0.2649,-0.10091 0.09543,0.2763 -0.02968,0.47469 -0.352621,0.55913 -0.407431,0.10655 -0.478294,0.0146 -0.380995,-0.49439 0.06574,-0.34391 0.224714,-0.62528 0.35327,-0.62528 0.480086,0 0.211831,-0.47318 -0.351817,-0.62058 -0.354374,-0.0927 -0.772211,0.0158 -1.058333,0.27473 -0.352462,0.31897 -0.472778,0.33887 -0.472778,0.0782 0,-0.19233 -0.07834,-0.27134 -0.174093,-0.17559 -0.09575,0.0957 -0.333876,0.0415 -0.529167,-0.12059 -0.261174,-0.21676 -0.355073,-0.21615 -0.355073,0.002 0,0.40482 -0.717198,0.37741 -0.883105,-0.0337 -0.0734,-0.1819 -0.148571,0.0265 -0.167049,0.46302 l -0.0336,0.79375 -0.471893,-0.92604 c -0.459954,-0.90261 -0.458371,-0.93706 0.06253,-1.36164 0.293935,-0.23957 0.710131,-0.36817 0.92488,-0.28576 0.247922,0.0951 0.322367,0.0397 0.203937,-0.15196 -0.114445,-0.18518 0.07326,-0.36699 0.485763,-0.47052 0.369753,-0.0928 0.672279,-0.33964 0.672279,-0.54852 0,-0.20889 0.148828,-0.35398 0.330729,-0.32242 0.685849,0.11897 1.805016,-0.64537 1.728552,-1.18052 -0.0412,-0.28835 0.09289,-0.58134 0.297985,-0.6511 0.266052,-0.0905 0.321172,0.008 0.19238,0.34355 -0.152335,0.39698 -0.117618,0.41821 0.222422,0.136 0.325415,-0.27007 0.402932,-0.26878 0.402932,0.007 0,0.18759 0.08911,0.25196 0.198022,0.14305 0.108911,-0.10891 -0.03352,-0.36733 -0.316509,-0.57425 -0.399295,-0.29197 -0.443644,-0.44712 -0.198021,-0.69275 0.174079,-0.17408 0.318331,-0.2034 0.32056,-0.0652 0.0022,0.13824 0.119467,0.0728 0.260531,-0.14552 0.206343,-0.31929 0.257273,-0.27745 0.260532,0.21405 0.0024,0.36522 0.11772,0.54068 0.286673,0.43626 0.155441,-0.0961 0.216336,-0.34741 0.135322,-0.55852 -0.08734,-0.22761 -0.03363,-0.31361 0.13195,-0.21127 0.165867,0.10251 0.245207,-0.0262 0.195407,-0.31699 -0.05159,-0.30123 0.0541,-0.46056 0.274737,-0.41414 0.197219,0.0415 0.547496,-0.0776 0.778393,-0.26459 0.320415,-0.2595 0.372769,-0.2617 0.221119,-0.009 -0.109283,0.1819 -0.09907,0.33073 0.0227,0.33073 0.295337,0 1.13275,-0.99178 1.13275,-1.34156 0,-0.15244 0.148828,-0.18776 0.330729,-0.0785 0.260236,0.15635 0.25954,0.11076 -0.0033,-0.21386 -0.270299,-0.33388 -0.265656,-0.46927 0.02434,-0.70995 0.197085,-0.16357 0.425807,-0.22992 0.508271,-0.14746 0.08247,0.0825 0.224282,-0.0843 0.315147,-0.3706 0.187249,-0.58996 1.034511,-0.90794 1.412386,-0.53006 0.15826,0.15826 0.38644,0.11575 0.617625,-0.11506 0.464661,-0.46391 1.557261,-0.75953 1.557261,-0.42134 0,0.14049 0.131413,0.17421 0.292028,0.075 0.160615,-0.0993 0.08739,0.13183 -0.162721,0.51355 -0.542904,0.82858 -0.799775,0.92327 -0.380781,0.14037 0.286063,-0.53451 0.268079,-0.53279 -0.519858,0.0498 -0.448892,0.33188 -0.819955,0.78939 -0.824582,1.01668 -0.0067,0.33117 -0.08558,0.31125 -0.396875,-0.10032 -0.376402,-0.49765 -0.389713,-0.49354 -0.42876,0.13229 -0.07441,1.19254 -0.09712,1.28601 -0.381551,1.57044 -0.340606,0.3406 -1.231744,0.0579 -0.99991,-0.31722 0.27034,-0.43742 -0.779548,0.21049 -1.334187,0.82336 -0.466563,0.51555 -0.468965,0.55368 -0.03488,0.55368 0.305689,0 0.413757,0.13663 0.313895,0.39687 -0.08376,0.21828 -0.03697,0.39688 0.103984,0.39688 0.140953,0 0.256279,-0.10633 0.256279,-0.23628 0,-0.12995 0.19185,-0.3099 0.426334,-0.39988 0.316696,-0.12152 0.38318,-0.0511 0.258526,0.2737 -0.142428,0.37117 -0.104976,0.38516 0.247648,0.0925 0.324501,-0.26931 0.341988,-0.3902 0.07986,-0.5522 -0.461959,-0.28551 -0.11389,-0.56691 0.70122,-0.56691 0.37252,0 0.741696,-0.10418 0.820388,-0.23151 0.07869,-0.12733 0.01598,-0.23151 -0.139359,-0.23151 -0.184187,0 -0.167478,-0.18408 0.04803,-0.52916 0.467712,-0.74893 1.119346,-0.72312 0.717145,0.0284 -0.222599,0.41593 -0.220982,0.63437 0.0064,0.8599 0.229222,0.22738 0.264321,0.19601 0.1416,-0.12656 -0.09704,-0.25504 -0.0035,-0.49015 0.230774,-0.58005 0.282726,-0.10849 0.365626,-0.004 0.293622,0.3698 -0.05518,0.28654 0.01252,0.45123 0.150421,0.366 0.137914,-0.0852 0.250753,-8e-4 0.250753,0.18764 0,0.18844 0.267891,-0.0395 0.595313,-0.50652 0.327422,-0.46703 0.900044,-0.95726 1.272492,-1.08941 0.634521,-0.22514 0.670325,-0.19355 0.568328,0.50139 -0.09123,0.62161 0.03281,0.81491 0.766371,1.19425 0.534479,0.27639 0.910603,0.34646 0.966099,0.17997 0.12005,-0.36015 2.041041,-0.12072 3.299312,0.41122 0.719704,0.30426 1.130163,0.72417 1.521355,1.55639 0.577066,1.22767 0.697169,2.20383 0.271147,2.20383 -0.145521,0 -0.264583,0.2792 -0.264583,0.62045 0,0.72702 -0.751406,1.49279 -1.476042,1.50426 -0.473556,0.007 -0.476512,0.0266 -0.04322,0.2789 0.255815,0.14897 0.583237,0.19786 0.727604,0.10863 0.144368,-0.0892 0.262488,-0.0361 0.262488,0.11797 0,0.15411 0.115327,0.2802 0.256281,0.2802 0.140951,0 0.187746,-0.17859 0.103984,-0.39687 -0.09472,-0.24682 0.0016,-0.39688 0.25487,-0.39688 0.720601,0 1.50005,-1.40993 1.364547,-2.46829 -0.103884,-0.81139 -0.05377,-0.9316 0.338246,-0.81134 0.253108,0.0777 0.162541,-0.0414 -0.201261,-0.26459 l -0.661458,-0.40578 0.661458,-0.0133 0.661458,-0.0133 -0.640564,-0.32683 c -0.873075,-0.44546 -0.980588,-0.94395 -0.261001,-1.21015 l 0.597961,-0.2212 -0.638003,-0.16684 c -0.627311,-0.16404 -0.629203,-0.17349 -0.112781,-0.5638 0.318865,-0.241 0.389144,-0.40028 0.178877,-0.40538 -0.19049,-0.005 -0.272759,-0.12748 -0.182822,-0.273 0.09203,-0.14891 -0.120108,-0.26458 -0.485243,-0.26458 -0.356823,0 -0.717299,-0.1786 -0.801063,-0.39688 -0.08376,-0.21828 -0.36439,-0.3987 -0.623621,-0.40093 -0.359566,-0.003 -0.387545,-0.0572 -0.117996,-0.22802 0.194331,-0.12318 0.343159,-0.29995 0.330729,-0.39282 -0.01244,-0.0929 -0.0089,-0.25815 0.0079,-0.36729 0.01678,-0.10914 0.04655,-0.36678 0.06615,-0.57254 0.04187,-0.43962 0.697085,-0.73045 0.697085,-0.30939 0,0.15764 -0.138907,0.28663 -0.308682,0.28663 -0.169772,0 -0.230338,0.0783 -0.134585,0.17409 0.09575,0.0957 0.04148,0.33388 -0.120592,0.52917 -0.212304,0.25581 -0.213365,0.35507 -0.0038,0.35507 0.159985,0 0.485912,-0.29765 0.724286,-0.66146 0.238371,-0.3638 0.553352,-0.66145 0.699953,-0.66145 0.15109,0 0.123875,0.17191 -0.06283,0.39687 -0.269761,0.32504 -0.251682,0.39688 0.0999,0.39688 0.236098,0 0.42927,0.17156 0.42927,0.38125 0,0.74747 0.486111,0.66301 1.017881,-0.17686 0.449366,-0.70973 0.569452,-0.77727 0.713687,-0.40141 0.135266,0.3525 0.283996,0.39272 0.67613,0.18286 0.619263,-0.33142 0.649449,-0.0574 0.06484,0.58863 -0.522126,0.57695 -0.170228,0.6268 0.554599,0.0786 0.66848,-0.50561 1.099195,-0.50026 0.677034,0.008 -0.217271,0.2618 -0.231124,0.39688 -0.0407,0.39688 0.160547,0 0.213688,0.19542 0.119727,0.44028 -0.202203,0.52692 0.231629,0.3117 1.243891,-0.6171 0.363802,-0.3338 0.899583,-0.79659 1.190625,-1.02842 0.291041,-0.23183 0.364892,-0.33657 0.164113,-0.23276 -0.24333,0.12581 -0.3224,0.0662 -0.237136,-0.17882 0.07036,-0.20215 0.353693,-0.32647 0.629637,-0.27626 0.275945,0.0502 0.415571,0.004 0.310277,-0.10324 -0.301956,-0.30686 1.627357,-1.22046 2.196108,-1.03995 0.279882,0.0888 0.508876,0.27958 0.508876,0.42388 0,0.1443 -0.132374,0.18056 -0.294164,0.0806 -0.308372,-0.19058 -0.753189,0.31847 -0.760119,0.86988 -0.0024,0.18864 0.173292,0.25437 0.423357,0.15841 0.341617,-0.13109 0.390435,-0.0475 0.243213,0.41634 -0.101309,0.31919 -0.106032,1.04301 -0.0105,1.60847 0.138063,0.81719 0.275027,1.00861 0.667568,0.93302 0.340585,-0.0656 0.44876,0.0224 0.34853,0.28363 -0.106349,0.27714 0.06928,0.37875 0.654672,0.37875 0.440005,0 0.855599,0.14882 0.923544,0.33072 0.07754,0.20759 0.193194,0.13371 0.310624,-0.19843 0.522573,-1.47807 0.754112,-1.71979 1.647325,-1.71979 1.177268,0 1.33178,0.49489 0.731742,2.34373 -0.278305,0.85751 -0.457454,2.08383 -0.420995,2.88179 0.05423,1.1869 -0.0061,1.38897 -0.414731,1.38848 -0.27137,-2.6e-4 -0.8215,-0.51277 -1.271945,-1.1848 -0.436563,-0.65133 -0.853281,-1.18686 -0.926042,-1.19007 -0.07276,-0.003 -0.127738,0.60241 -0.122171,1.34583 0.0076,1.01544 0.135358,1.44323 0.513591,1.71981 0.468831,0.34281 0.362733,0.49863 -0.259128,0.38057 -0.546127,-0.10368 0.280426,0.49575 1.230519,0.89239 0.896048,0.37409 1.011764,0.36722 1.599303,-0.0949 0.348353,-0.27402 0.859536,-0.91818 1.135962,-1.43147 0.364136,-0.67616 0.834663,-1.05833 1.707989,-1.38726 1.796237,-0.67655 3.45789,-1.85974 4.644977,-3.30749 0.582084,-0.7099 1.153383,-1.29242 1.269553,-1.29448 0.116168,-0.002 0.70363,-0.24167 1.305468,-0.53244 0.93314,-0.45085 1.221345,-0.48273 1.957506,-0.21653 0.474792,0.17169 0.812075,0.39498 0.749515,0.4962 -0.06256,0.10122 0.378645,0.0144 0.980453,-0.19294 0.762603,-0.26274 1.178195,-0.29299 1.371372,-0.0998 0.152448,0.15245 0.448596,0.27718 0.658112,0.27718 0.209513,0 0.524399,0.19619 0.699743,0.43599 0.287229,0.39281 0.333949,0.3781 0.471652,-0.14847 0.09855,-0.37687 0.01677,-0.6367 -0.230249,-0.73148 -0.294256,-0.11292 -0.312658,-0.23187 -0.07936,-0.51298 0.458171,-0.55207 0.737042,-0.43977 0.569508,0.22933 -0.143883,0.57464 -0.130816,0.57923 0.376332,0.13229 0.288965,-0.25466 0.63508,-0.4594 0.769142,-0.45497 0.134061,0.004 0.03539,0.1294 -0.219271,0.27773 -0.254662,0.14832 -0.463021,0.44939 -0.463021,0.66903 0,0.21964 -0.1177,0.3266 -0.261554,0.23769 -0.152863,-0.0945 -0.192537,0.0182 -0.09547,0.27115 0.09134,0.23804 0.238808,0.32848 0.327697,0.20096 0.08889,-0.12751 0.513549,-0.25725 0.943682,-0.28831 0.430136,-0.0311 0.906386,-0.18822 1.058333,-0.34925 0.199023,-0.21091 0.119431,-0.24553 -0.284654,-0.12383 -0.432938,0.1304 -0.327015,-0.0769 0.464222,-0.90871 0.873109,-0.91782 1.201269,-1.08562 2.212729,-1.13139 0.852246,-0.0386 1.189249,-0.16581 1.193477,-0.45062 0.0052,-0.35277 0.03439,-0.35277 0.262371,0 0.219189,0.33917 0.25707,0.32955 0.260533,-0.0661 0.0021,-0.25467 0.09335,-0.44893 0.202488,-0.43169 0.109141,0.0172 0.287735,0.002 0.396875,-0.0331 0.109141,-0.0354 0.291592,-0.0793 0.405448,-0.0975 0.113853,-0.0182 0.6794,-0.23697 1.256771,-0.48617 0.577368,-0.2492 1.562399,-0.58299 2.188953,-0.74176 0.626557,-0.15877 1.337628,-0.52043 1.580155,-0.80368 0.472946,-0.55236 1.549948,-0.73672 1.224138,-0.20954 -0.203103,0.32862 -0.153305,0.30437 1.546619,-0.75318 0.545703,-0.33949 0.992187,-0.55918 0.992187,-0.4882 0,0.071 0.296532,0.0163 0.658958,-0.12147 0.484577,-0.18424 0.642118,-0.165 0.595313,0.0727 -0.035,0.17778 0.08518,0.29347 0.267084,0.25709 0.181901,-0.0364 0.330729,0.0472 0.330729,0.18578 0,0.14375 0.511244,0.0981 1.190625,-0.1064 1.304136,-0.39248 1.62443,-0.16719 0.463021,0.32569 -0.68207,0.28945 -0.661498,0.29943 0.328713,0.15934 1.175036,-0.16622 1.52015,-0.31469 1.354513,-0.58269 -0.06124,-0.0991 0.323773,-0.1804 0.85558,-0.18069 0.531808,-2.7e-4 1.383642,-0.0894 1.892965,-0.19807 0.535503,-0.11423 0.777208,-0.10164 0.573127,0.0299 -0.28453,0.18333 -0.271711,0.25855 0.06615,0.3882 0.230484,0.0884 0.419062,0.0375 0.419062,-0.1133 0,-0.15371 0.23244,-0.20034 0.52916,-0.10616 0.30172,0.0958 0.52917,0.0476 0.52917,-0.11217 0,-0.16372 0.522225,-0.26255 1.256765,-0.23784 1.26526,0.0426 3.23987,-0.13693 4.701,-0.42733 0.62218,-0.12366 0.67717,-0.10394 0.25994,0.0932 -0.36874,0.17424 -0.40884,0.25813 -0.13229,0.27669 0.28579,0.0192 0.24876,0.10766 -0.13229,0.31608 -0.29105,0.15919 -0.678,0.47598 -0.8599,0.70398 -0.22257,0.27898 -0.33073,0.30565 -0.33073,0.0816 0,-0.2126 -0.21522,-0.2797 -0.59531,-0.18559 -0.32742,0.0811 -0.20836,-0.0303 0.26458,-0.24751 0.47295,-0.2172 0.8599,-0.43632 0.8599,-0.48693 0,-0.12833 -2.41246,0.27425 -2.97656,0.49672 -0.71707,0.28279 -0.54644,0.62855 0.26458,0.53617 0.40018,-0.0456 0.86868,0.0302 1.0411,0.16844 0.36819,0.29516 4.94965,0.40136 6.76411,0.15678 0.72015,-0.0971 1.25677,-0.0643 1.25677,0.0768 0,0.1354 0.29392,0.24617 0.65315,0.24617 0.47188,0 0.61089,-0.11015 0.50086,-0.39688 -0.0838,-0.21828 -0.0205,-0.39687 0.1406,-0.39687 0.16109,0 0.29289,0.19247 0.29289,0.42772 0,0.33104 0.16447,0.38965 0.7276,0.25932 1.79332,-0.41505 2.71198,-0.48315 2.71198,-0.20101 0,0.16011 -0.17859,0.22258 -0.39687,0.13882 -0.21828,-0.0838 -0.60524,-0.0597 -0.8599,0.0536 -0.36745,0.16338 -0.27189,0.24823 0.46302,0.41112 0.82667,0.18322 0.79189,0.19612 -0.32415,0.12026 l -1.25019,-0.085 0.64654,0.50857 c 0.5535,0.43538 0.9498,0.48958 2.75383,0.37661 1.3452,-0.0842 2.14062,-0.0319 2.19946,0.1446 0.18549,0.55646 3.91201,0.99707 3.91201,0.46255 0,-0.18134 -0.25453,-0.22938 -0.66689,-0.12589 -0.36678,0.0921 -0.89625,0.0446 -1.17659,-0.10541 -0.28035,-0.15003 -0.79951,-0.29678 -1.1537,-0.32609 -0.41718,-0.0345 -0.61941,-0.19697 -0.57419,-0.46122 0.0384,-0.22435 0.23257,-0.35062 0.43152,-0.28059 0.19895,0.07 0.918,0.12891 1.59789,0.13085 0.67988,0.002 1.1877,0.052 1.12848,0.11121 -0.18442,0.18442 1.24887,0.82674 1.49935,0.67193 0.13038,-0.0806 0.23705,0.053 0.23705,0.29684 0,0.32302 -0.15397,0.40309 -0.56728,0.29501 -0.41522,-0.10859 -0.48866,-0.0697 -0.27398,0.14495 0.16132,0.16132 0.51119,0.30936 0.77748,0.32898 0.2663,0.0196 0.76044,0.22917 1.0981,0.46568 0.33766,0.23651 0.77885,0.36673 0.98043,0.28937 0.20157,-0.0773 0.3665,-0.002 0.3665,0.16787 0,0.16968 0.12063,0.23396 0.26805,0.14284 0.25605,-0.15825 3.17153,1.11475 3.17153,1.38479 0,0.13691 -0.93804,-0.0626 -1.76136,-0.37453 -0.45672,-0.17306 -0.45948,-0.15638 -0.0435,0.26346 0.24426,0.24652 0.63122,0.44822 0.85989,0.44822 0.22868,0 0.41578,0.12428 0.41578,0.27618 0,0.1519 0.14882,0.25355 0.33072,0.22588 0.65592,-0.0997 2.57874,0.3657 3.03718,0.73519 0.43034,0.34685 0.41461,0.36407 -0.1929,0.21117 -0.56919,-0.14325 -0.54062,-0.0898 0.20483,0.38318 0.47646,0.3023 1.042,0.54965 1.25677,0.54965 0.47554,0 0.51737,0.43358 0.0598,0.61926 -0.4033,0.16365 0.30415,0.75319 0.7276,0.60634 0.44195,-0.15326 2.37855,1.07107 2.42047,1.53023 0.0316,0.34631 0.0151,0.35163 -0.0855,0.0275 -0.0686,-0.22114 -0.32439,-0.39266 -0.56838,-0.38118 -0.25053,0.0118 -0.30613,0.0768 -0.12775,0.14939 0.17372,0.0707 0.25374,0.29039 0.17781,0.48826 -0.0964,0.25115 0.32746,0.50031 1.40393,0.82532 0.84808,0.25606 1.67281,0.62041 1.83272,0.80966 0.15991,0.18925 0.36827,0.26657 0.46302,0.17182 0.0947,-0.0948 0.17228,0.13407 0.17228,0.50851 0,0.56271 -0.097,0.65542 -0.5592,0.53455 -0.4959,-0.12968 -0.52596,-0.0841 -0.26553,0.40248 0.16151,0.30179 0.25407,0.70616 0.20568,0.8986 -0.0484,0.19245 -0.0384,0.26156 0.0223,0.15358 0.0607,-0.10798 0.34212,-0.0722 0.6255,0.0794 0.28338,0.15166 0.45305,0.37636 0.37705,0.49933 -0.13889,0.22472 0.60792,0.66565 0.98876,0.58378 0.11217,-0.0241 0.12902,0.25465 0.0375,0.61946 -0.12055,0.48032 -0.0603,0.66329 0.21843,0.66329 0.21171,0 0.75888,0.18656 1.21594,0.41457 0.45707,0.22802 0.98138,0.32799 1.16513,0.22216 0.18376,-0.10582 0.25196,-0.1011 0.15157,0.0105 -0.18839,0.20941 -0.13797,0.28868 0.99671,1.56682 0.37052,0.41737 0.60679,0.92338 0.52506,1.12448 -0.20294,0.49931 -0.35212,1.07296 -0.21549,0.82865 0.15956,-0.2853 0.80095,-0.24446 0.99105,0.0631 0.0967,0.15639 -0.03,0.19154 -0.31512,0.0874 -0.45221,-0.16516 -0.45164,-0.14549 0.0111,0.38206 0.26834,0.3059 0.62552,0.5242 0.79375,0.4851 0.16823,-0.0391 0.21724,-0.0214 0.10891,0.0394 -0.10832,0.0608 0.12267,0.66633 0.51331,1.3457 0.56727,0.98653 0.60571,1.14469 0.19092,0.78558 -0.36079,-0.31236 -0.63867,-0.37294 -0.91018,-0.19843 -0.32112,0.20639 -0.28464,0.28031 0.20448,0.41435 0.33021,0.0905 0.59531,0.37061 0.59531,0.62905 0,0.25625 0.17151,0.60826 0.38115,0.78224 0.20963,0.17398 0.32449,0.46396 0.25525,0.6444 -0.0692,0.18044 0.11643,0.54738 0.4126,0.81541 0.56458,0.51094 0.74874,1.09565 0.24752,0.78588 -0.19804,-0.12239 -0.19217,0.005 0.0184,0.39818 0.23412,0.43745 0.23499,0.66758 0.004,0.94638 -0.17421,0.20991 -0.2123,0.51562 -0.0885,0.71069 0.11944,0.18828 0.235,0.52091 0.25681,0.73919 0.0706,0.70641 0.42159,1.5875 0.63246,1.5875 0.11298,0 0.28042,0.19544 0.37208,0.4343 0.13359,0.34814 0.0931,0.37328 -0.20396,0.12672 -0.29587,-0.24555 -0.40181,-0.18831 -0.52528,0.28384 -0.0858,0.32827 -0.0171,0.6764 0.15439,0.78242 0.16998,0.10506 0.35365,0.58146 0.40814,1.05868 0.0545,0.47722 0.21411,1.0826 0.35469,1.34529 0.14059,0.26268 0.17891,0.60171 0.0852,0.75339 -0.0937,0.15169 0.0429,0.51149 0.30356,0.79957 0.62887,0.69489 1.28101,2.51409 0.74041,2.06544 -0.57873,-0.48031 -0.43131,0.1493 0.16034,0.68473 0.29104,0.26339 0.52916,0.68398 0.52916,0.93465 0,0.25067 0.1786,0.60398 0.39688,0.78514 0.21828,0.18116 0.39687,0.49339 0.39687,0.69385 0,0.20047 0.11907,0.36448 0.26459,0.36448 0.14552,0 0.26458,0.16801 0.26458,0.37336 0,0.20534 0.35389,0.65183 0.78643,0.99219 2.88339,2.2689 3.89654,3.10839 4.74044,3.92786 0.52548,0.51028 1.51609,1.41396 2.20135,2.00818 1.44123,1.24977 2.07153,2.9692 1.35214,3.68859 -0.21547,0.21547 -0.50087,0.32434 -0.63423,0.24193 -0.13334,-0.0824 -0.11913,0.1745 0.0316,0.57092 0.26604,0.69974 0.0267,1.14523 -0.62198,1.15751 -0.11773,0.002 -0.14058,0.12293 -0.0508,0.26823 0.21363,0.34567 -0.99514,0.21837 -1.25247,-0.13189 -0.11321,-0.15409 -0.19608,-0.0933 -0.19844,0.14552 -0.002,0.22556 0.13882,0.55298 0.31345,0.7276 0.23629,0.23629 0.23867,0.3175 0.009,0.3175 -0.1695,0 -0.44089,-0.24795 -0.60308,-0.55101 -0.2824,-0.52766 -0.30984,-0.53058 -0.64731,-0.0691 -0.19382,0.26507 -0.29641,0.57256 -0.22796,0.6833 0.1495,0.2419 -0.23576,0.26157 -0.80967,0.0413 -0.22935,-0.088 -0.35112,-0.2666 -0.27061,-0.39687 0.0805,-0.13028 0.0273,-0.23686 -0.1182,-0.23686 -0.14552,0 -0.33816,0.11906 -0.4281,0.26458 -0.0899,0.14552 -0.0502,0.26458 0.0884,0.26458 0.29252,0 0.65102,0.80402 0.4487,1.00633 -0.0753,0.0753 -0.35804,-0.1182 -0.6284,-0.42993 -0.27036,-0.31172 -0.58588,-0.47964 -0.70116,-0.37315 -0.11528,0.1065 -0.01,-0.11942 0.2348,-0.50202 0.37421,-0.5858 0.38494,-0.71847 0.068,-0.8401 -0.27281,-0.10469 -0.33758,0.004 -0.23532,0.39512 l 0.14111,0.53958 -1.03095,-0.53745 c -0.56702,-0.2956 -1.36508,-0.66689 -1.77347,-0.82509 -0.40838,-0.15819 -0.66925,-0.40618 -0.57969,-0.55108 0.0896,-0.1449 0.12524,-0.26346 0.0793,-0.26346 -0.0459,0 -0.46968,-0.11075 -0.94166,-0.24611 -1.0755,-0.30845 -1.10695,-0.0149 -0.0644,0.6009 1.05093,0.6208 1.00397,0.94088 -0.12492,0.85131 -0.74947,-0.0595 -0.90557,0.0129 -0.84756,0.39303 0.0391,0.25626 0.23135,0.65901 0.4272,0.89501 0.45085,0.54323 0.16291,0.86749 -0.37437,0.42159 -0.58567,-0.48607 -0.49411,0.0724 0.1451,0.88505 0.30161,0.38343 0.4277,0.69714 0.2802,0.69714 -0.14749,0 -0.34296,-0.121 -0.43436,-0.2689 -0.3034,-0.4909 -0.67402,0.0107 -0.39421,0.53348 0.17775,0.33213 0.17799,0.55146 8e-4,0.66102 -0.40656,0.25126 -0.31524,0.6619 0.14719,0.6619 0.22687,0 0.33974,0.1177 0.25084,0.26155 -0.09,0.1456 0.007,0.19675 0.2193,0.11537 0.24769,-0.0951 0.50702,0.14162 0.74135,0.67656 0.25493,0.58198 0.49841,0.78708 0.83206,0.70088 0.55467,-0.14329 1.16413,0.669929 1.40512,1.874879 l 0.16469,0.82346 -1.41761,0.14668 c -3.30048,0.34148 -7.60397,0.46273 -10.18355,0.2869 -2.56834,-0.17505 -2.71524,-0.21444 -2.06266,-0.553 0.38644,-0.20049 0.9569,-0.37669 1.26769,-0.39154 0.38049,-0.0182 0.26258,-0.11331 -0.36097,-0.29121 -1.31084,-0.37399 -3.69903,-1.555319 -4.60399,-2.277389 -0.60452,-0.48235 -0.96977,-0.57919 -1.71979,-0.45596 -0.52375,0.0861 -1.90476,-0.0297 -3.06893,-0.25724 -1.16417,-0.22752 -2.41432,-0.46989 -2.77813,-0.5386 -0.47111,-0.089 -0.92102,0.10064 -1.56347,0.65891 -0.76242,0.66252 -0.84954,0.84705 -0.56292,1.19241 0.18651,0.224729 0.23523,0.411239 0.10827,0.414469 -0.12696,0.003 0.0281,0.2116 0.34467,0.46303 0.31653,0.25142 0.61419,0.69526 0.66146,0.9863 0.0793,0.48841 -0.0669,0.53063 -1.89842,0.54825 -1.09141,0.0105 -2.04783,-0.0738 -2.12539,-0.18728 -0.14216,-0.20805 -2.11262,0.34475 -2.96425,0.8316 -0.69185,0.39544 -0.99586,0.31884 -0.99586,-0.25092 z m -1.5875,-6.630199 c 0,-0.14552 -0.0525,-0.26458 -0.11668,-0.26458 -0.0642,0 -0.19026,0.11906 -0.2802,0.26458 -0.0899,0.14552 -0.0374,0.26458 0.11668,0.26458 0.15411,0 0.2802,-0.11906 0.2802,-0.26458 z m 30.69166,-0.26458 c 0,-0.14553 -0.12609,-0.26459 -0.2802,-0.26459 -0.15411,0 -0.20661,0.11906 -0.11667,0.26459 0.0899,0.14552 0.21602,0.26458 0.2802,0.26458 0.0642,0 0.11667,-0.11906 0.11667,-0.26458 z m 0.92604,-1.5875 c 0.0899,-0.14553 -0.0291,-0.26459 -0.26458,-0.26459 -0.23546,0 -0.35452,0.11906 -0.26458,0.26459 0.0899,0.14552 0.209,0.26458 0.26458,0.26458 0.0556,0 0.17465,-0.11906 0.26458,-0.26458 z m -87.180202,-2.32834 c 0,-0.11641 -0.09938,-0.32477 -0.220853,-0.46302 -0.121467,-0.13824 -0.431733,-0.82413 -0.68948,-1.5242 -0.257744,-0.70006 -0.512321,-1.22915 -0.565727,-1.17575 -0.133651,0.13366 0.376651,2.05159 0.739495,2.77933 0.288232,0.57809 0.736565,0.81161 0.736565,0.38364 z m 88.635412,-1.11125 c -0.51766,-0.33454 -1.05833,-0.33454 -1.05833,0 0,0.14552 0.32742,0.26276 0.7276,0.26053 0.56699,-0.003 0.64,-0.0607 0.33073,-0.26053 z m -80.168745,-0.89773 c 0,-0.0572 -0.184777,-0.17489 -0.410617,-0.26156 -0.235458,-0.0904 -0.341662,-0.046 -0.248968,0.10399 0.15538,0.25141 0.659585,0.37186 0.659585,0.15757 z m -10.054167,-1.88039 c 0,-0.21828 -0.115326,-0.39688 -0.25628,-0.39688 -0.140952,0 -0.187746,0.1786 -0.103984,0.39688 0.08376,0.21828 0.199088,0.39687 0.256281,0.39687 0.05719,0 0.103983,-0.17859 0.103983,-0.39687 z m 5.23012,-0.39711 c -0.390665,-0.62556 -0.575143,-0.49078 -0.340437,0.24872 0.09653,0.30412 0.283551,0.48617 0.415616,0.40455 0.136527,-0.0844 0.104092,-0.36621 -0.07518,-0.65327 z m 1.913631,0.29312 c 0,-0.12995 -0.17253,-0.30248 -0.3834,-0.3834 -0.256254,-0.0983 -0.334611,-0.02 -0.236276,0.23628 0.160592,0.4185 0.619676,0.52749 0.619676,0.14712 z m 2.38125,-0.14498 c 0,-0.0642 -0.119063,-0.19026 -0.264584,-0.2802 -0.14552,-0.0899 -0.264583,-0.0374 -0.264583,0.11668 0,0.15411 0.119063,0.2802 0.264583,0.2802 0.145521,0 0.264584,-0.0525 0.264584,-0.11668 z m -2.116667,-1.42025 c 0,-0.11771 -0.187423,-0.44513 -0.416497,-0.72761 -0.22907,-0.28247 -0.366492,-0.39453 -0.305379,-0.24901 0.06111,0.14552 0.185269,0.47295 0.2759,0.72761 0.169304,0.47572 0.445976,0.63019 0.445976,0.24901 z m 47.095828,-10.72008 c 0,-0.0474 -0.32742,-0.37481 -0.7276,-0.7276 l -0.72761,-0.64144 0.64144,0.72761 c 0.59951,0.68005 0.81377,0.84894 0.81377,0.64143 z m 2.91042,-0.54289 c 0,-0.0549 -0.20836,-0.2633 -0.46302,-0.46302 -0.41965,-0.32911 -0.42901,-0.31975 -0.0999,0.0999 0.34565,0.44073 0.56292,0.58089 0.56292,0.36313 z m -2.76725,-0.67625 c -0.0959,-0.1552 -0.30101,-0.28219 -0.45576,-0.28219 -0.17545,0 -0.15537,0.15181 0.0533,0.40327 0.36288,0.43725 0.68721,0.33967 0.40244,-0.12108 z m 0.91517,0.15569 c 0,-0.0502 -0.2679,-0.31809 -0.59532,-0.59531 l -0.59531,-0.50403 0.50403,0.59532 c 0.47366,0.55944 0.6866,0.71576 0.6866,0.50402 z m -3.04271,-1.23163 c -0.0899,-0.14552 -0.28259,-0.26458 -0.42811,-0.26458 -0.14552,0 -0.191,0.11906 -0.10106,0.26458 0.0899,0.14552 0.28258,0.26459 0.4281,0.26459 0.14552,0 0.191,-0.11907 0.10107,-0.26459 z m -1.33824,-1.60443 c -0.25658,-0.28351 -0.53324,-0.44874 -0.61481,-0.36718 -0.0816,0.0816 0.0269,0.25655 0.24092,0.38885 0.21406,0.1323 0.40409,0.36395 0.42228,0.51478 0.0689,0.57111 0.1454,0.6601 0.27955,0.32507 0.0762,-0.19032 -0.0714,-0.57801 -0.32794,-0.86152 z m 2.21574,-1.9581 c -0.0461,-0.0385 -0.38141,-0.22057 -0.74521,-0.40465 l -0.66146,-0.3347 0.52917,0.52961 c 0.29104,0.29128 0.62638,0.47338 0.7452,0.40465 0.11883,-0.0687 0.17836,-0.15643 0.1323,-0.19491 z m 9.46959,-0.79544 c -0.0314,-0.21407 -0.13101,-0.4631 -0.22132,-0.55341 -0.12718,-0.12718 -0.10241,0.40971 0.0404,0.87649 0.0781,0.25535 0.22681,-0.0102 0.18088,-0.32308 z m -5.71688,-0.23984 c 0,-0.0549 -0.20836,-0.2633 -0.46303,-0.46302 -0.41964,-0.32911 -0.429,-0.31975 -0.0999,0.0999 0.34564,0.44073 0.56292,0.58089 0.56292,0.36313 z m 30.1625,-0.42927 c 0,-0.14552 -0.0525,-0.26458 -0.11668,-0.26458 -0.0642,0 -0.19026,0.11906 -0.2802,0.26458 -0.0899,0.14552 -0.0374,0.26458 0.11668,0.26458 0.15411,0 0.2802,-0.11906 0.2802,-0.26458 z m -20.50521,-1.5875 c -0.0899,-0.14552 -0.28259,-0.26458 -0.42811,-0.26458 -0.14552,0 -0.191,0.11906 -0.10106,0.26458 0.0899,0.14552 0.28258,0.26458 0.4281,0.26458 0.14553,0 0.191,-0.11906 0.10107,-0.26458 z m -7.67292,-1.85207 c -0.0899,-0.14553 -0.28258,-0.26459 -0.4281,-0.26459 -0.14552,0 -0.191,0.11906 -0.10107,0.26459 0.0899,0.14552 0.28259,0.26458 0.42811,0.26458 0.14552,0 0.191,-0.11906 0.10106,-0.26458 z m 3.04271,-0.36448 c 0,-0.0549 -0.20836,-0.2633 -0.46302,-0.46302 -0.41965,-0.32911 -0.42901,-0.31975 -0.0999,0.0999 0.34565,0.44073 0.56292,0.58089 0.56292,0.36313 z m 2.25657,-0.94612 c -0.0857,-0.13875 -0.53926,-0.50726 -1.0078,-0.81893 -0.84826,-0.56425 -0.84794,-0.5632 0.0742,0.24515 0.97721,0.85667 1.18888,0.98675 0.93365,0.57378 z m -91.515289,-0.91297 c -0.02098,-0.34984 -0.107992,-0.59297 -0.193349,-0.54028 -0.08536,0.0527 -0.740204,-0.28829 -1.455208,-0.75772 -2.099295,-1.37827 -3.845936,-2.35508 -3.976916,-2.22411 -0.067,0.067 0.805553,0.69483 1.939002,1.39517 1.133449,0.70033 2.410841,1.60851 2.838649,2.01817 0.427807,0.40966 0.802163,0.74484 0.831905,0.74484 0.02974,0 0.0369,-0.28624 0.01593,-0.63607 z m 84.856479,0.23919 c -0.0838,-0.21828 -0.27319,-0.39687 -0.42096,-0.39687 -0.15487,0 -0.12915,0.16811 0.0607,0.39687 0.18116,0.21828 0.37059,0.39688 0.42097,0.39688 0.0504,0 0.023,-0.1786 -0.0607,-0.39688 z m -4.19672,-0.66146 c -0.0899,-0.14552 -0.30532,-0.26276 -0.47864,-0.26053 -0.18933,0.002 -0.1567,0.10642 0.0818,0.26053 0.50829,0.32849 0.59988,0.32849 0.39687,0 z m 2.65646,-0.51196 c -0.0717,-0.11595 -0.46055,-0.1453 -0.86421,-0.0652 l -0.73392,0.14561 0.66146,0.1741 c 0.72292,0.19028 1.14131,0.0766 0.93667,-0.2545 z m 7.00083,-1.19852 c 0,-0.0676 -0.26789,-0.26573 -0.59531,-0.44019 -0.53981,-0.28764 -0.56146,-0.27617 -0.23219,0.12298 0.33809,0.40984 0.8275,0.59745 0.8275,0.31721 z m -9.525,-0.72707 c 0,-0.11456 -0.50601,-0.19641 -1.12448,-0.18191 -0.93647,0.022 -1.01389,0.0599 -0.46302,0.22716 0.82612,0.25077 1.5875,0.22907 1.5875,-0.0453 z m 1.09451,-0.15213 c -0.19088,-0.0636 -0.47286,0.0101 -0.62661,0.16386 -0.19634,0.19634 -0.093,0.23078 0.34706,0.11569 0.35777,-0.0936 0.47771,-0.21349 0.27955,-0.27955 z m 29.86174,0.37312 c 0,-0.0549 -0.20836,-0.2633 -0.46302,-0.46302 -0.41964,-0.32911 -0.429,-0.31975 -0.0999,0.0999 0.34564,0.44073 0.56291,0.58089 0.56291,0.36313 z m -22.75416,-0.27429 c 0,-0.0603 -0.57035,-0.46053 -1.26744,-0.88945 -0.69709,-0.42892 -1.44123,-0.94907 -1.65364,-1.15588 -0.82899,-0.80712 -2.12953,-1.58437 -2.44059,-1.45859 -0.21918,0.0886 -0.19612,0.13948 0.07,0.15436 0.51269,0.0287 2.09684,1.32041 1.63475,1.33298 -0.1923,0.005 -0.52932,-0.17017 -0.74894,-0.38979 -0.21962,-0.21962 -0.51764,-0.32618 -0.66226,-0.23679 -0.27162,0.16787 0.0365,0.36252 2.95145,1.86481 1.64232,0.8464 2.11667,1.02083 2.11667,0.77835 z m 3.96875,-0.25684 c 0,-0.19517 -1.1953,-0.8815 -1.85209,-1.06345 -0.3638,-0.10078 -0.12567,0.11115 0.52917,0.47097 1.35076,0.7422 1.32292,0.72973 1.32292,0.59248 z m 4.12078,-0.39537 c -0.15252,-0.24678 -1.21037,-0.59246 -1.21037,-0.39552 0,0.0638 0.26789,0.22373 0.59531,0.35534 0.7762,0.31199 0.78333,0.31245 0.61506,0.0402 z m 14.40005,-0.26821 c 0,-0.12996 -0.19543,-0.31128 -0.4343,-0.40293 -0.36313,-0.13935 -0.3795,-0.10064 -0.0999,0.23627 0.38103,0.45912 0.53419,0.5069 0.53419,0.16666 z m -31.55708,-0.18816 c -0.0879,-0.0879 -0.31612,-0.0973 -0.50711,-0.0209 -0.21107,0.0845 -0.14838,0.14716 0.15985,0.15985 0.27891,0.0115 0.43518,-0.0511 0.34726,-0.13896 z m 2.45291,-0.23703 c -0.3638,-0.20796 -0.89958,-0.37328 -1.19062,-0.36737 -0.3465,0.007 -0.20949,0.13386 0.39687,0.36737 1.22422,0.47145 1.61845,0.47145 0.79375,0 z m 7.40834,0.29502 c 0,-0.056 -0.29766,-0.2969 -0.66146,-0.53527 -0.3638,-0.23837 -0.66146,-0.32979 -0.66146,-0.20315 0,0.12663 0.26789,0.35945 0.59531,0.51736 0.7181,0.34632 0.72761,0.34921 0.72761,0.22106 z m 17.87495,-0.56801 c -0.28248,-0.21366 -0.63966,-0.38468 -0.79375,-0.38005 -0.15409,0.005 -0.049,0.18322 0.23343,0.39687 0.28247,0.21366 0.63966,0.38468 0.79375,0.38005 0.15409,-0.005 0.049,-0.18322 -0.23343,-0.39687 z M 26.477219,57.661351 c -0.181155,-0.69273 -0.409097,-0.81747 -0.881968,-0.48262 -0.313264,0.22182 -0.298712,0.24457 0.07878,0.12313 0.334611,-0.10764 0.463021,-0.004 0.463021,0.37192 0,0.28647 0.107915,0.52086 0.239813,0.52086 0.131897,0 0.177057,-0.23998 0.100355,-0.53329 z m 119.251501,0.44201 c 0,-0.0502 -0.26789,-0.3181 -0.59532,-0.59531 l -0.59531,-0.50403 0.50403,0.59531 c 0.47366,0.55945 0.6866,0.71576 0.6866,0.50403 z m -19.31459,-0.57018 c -0.18116,-0.21828 -0.52316,-0.39265 -0.76,-0.38749 -0.2963,0.006 -0.2243,0.12731 0.23084,0.38749 0.84909,0.48539 0.932,0.48539 0.52916,0 z m -2.11666,0.0324 c 0,-0.0549 -0.20836,-0.2633 -0.46303,-0.46302 -0.41964,-0.32911 -0.429,-0.31975 -0.0999,0.0999 0.34564,0.44073 0.56292,0.58089 0.56292,0.36313 z m 16.38211,-0.23365 c -0.0606,-0.0379 -0.4079,-0.30583 -0.7717,-0.59532 l -0.66146,-0.52634 0.50403,0.59531 c 0.27722,0.32742 0.62448,0.59531 0.7717,0.59531 0.14722,0 0.21807,-0.031 0.15743,-0.069 z m -13.58275,-0.50653 c -0.27936,-0.16215 -0.75561,-0.32193 -1.05833,-0.35506 -0.93978,-0.10287 -0.98247,-0.12138 -0.83397,-0.36166 0.14863,-0.24049 -1.21439,-0.91265 -1.85069,-0.91265 -0.19608,0 -0.41744,-0.15875 -0.49189,-0.35278 -0.0745,-0.19402 -0.2652,-0.35277 -0.42388,-0.35277 -0.15867,0 -0.21492,0.11906 -0.12498,0.26458 0.21285,0.3444 -0.41563,0.33417 -0.92604,-0.0151 -0.32692,-0.2237 -0.3036,-0.25796 0.13229,-0.19439 0.32828,0.0479 0.52917,-0.0735 0.52917,-0.3197 0,-0.25079 -0.3038,-0.42644 -0.82533,-0.4772 -0.64003,-0.0623 -0.85624,0.0379 -0.963,0.44612 -0.11904,0.45519 0.11756,0.60397 1.74817,1.09925 1.03721,0.31504 2.33785,0.8034 2.8903,1.08524 0.55245,0.28184 1.09536,0.45626 1.20646,0.3876 0.1111,-0.0687 0.37491,-0.0154 0.58624,0.11823 0.21133,0.1337 0.5033,0.24128 0.64882,0.23908 0.14552,-0.002 0.036,-0.13666 -0.24334,-0.29881 z m 19.55793,-0.48284 c -0.0899,-0.14552 -0.28259,-0.26458 -0.42811,-0.26458 -0.14552,0 -0.191,0.11906 -0.10106,0.26458 0.0899,0.14552 0.28258,0.26458 0.4281,0.26458 0.14553,0 0.191,-0.11906 0.10107,-0.26458 z m -28.77895,-0.15985 c -0.0879,-0.0879 -0.31613,-0.0973 -0.50712,-0.0209 -0.21107,0.0845 -0.14837,0.14716 0.15985,0.15985 0.27892,0.0115 0.43519,-0.0511 0.34727,-0.13896 z m 1.35061,-0.33655 c 0.27972,-0.17731 0.25814,-0.26008 -0.10401,-0.39905 -0.25132,-0.0964 -0.51927,-0.11301 -0.59545,-0.0368 -0.0762,0.0762 0.0301,0.14034 0.2363,0.14257 0.30863,0.003 0.30474,0.0494 -0.022,0.26053 -0.21828,0.14107 -0.27781,0.25648 -0.13229,0.25648 0.14552,0 0.4234,-0.10067 0.6175,-0.22371 z m 9.70125,-0.19215 c -0.29104,-0.22392 -0.50058,-0.51424 -0.46565,-0.64514 0.0349,-0.13091 -0.20319,-0.38012 -0.52917,-0.55381 -0.53987,-0.28766 -0.55987,-0.27604 -0.22452,0.13045 0.32604,0.39521 0.31091,0.42582 -0.1323,0.26768 -0.27524,-0.0982 -0.67903,-0.32401 -0.89731,-0.50177 -0.54953,-0.44752 -2.25135,-0.96805 -2.97313,-0.90938 -1.24794,0.10145 -1.41294,0.0294 -0.96317,-0.42033 0.37,-0.37 0.52548,-0.37038 1.57805,-0.004 1.45085,0.50521 1.71236,0.51438 1.32398,0.0464 -0.47157,-0.56821 -2.93318,-1.54132 -3.42325,-1.35327 -0.47719,0.18312 -0.73727,0.1076 -0.63951,-0.1857 0.071,-0.21314 -1.82231,-0.78702 -2.0024,-0.60693 -0.0647,0.0648 0.18489,0.23277 0.55474,0.37339 0.71501,0.27184 1.20857,0.81747 0.73947,0.81747 -0.15411,0 -0.2802,0.12655 -0.2802,0.28121 0,0.15467 0.20836,0.26002 0.46302,0.23412 0.8513,-0.0866 1.38906,0.0116 1.38906,0.25365 0,0.1319 -0.26789,0.17385 -0.59531,0.0932 -0.77695,-0.19131 -0.60653,-0.0492 0.99219,0.82717 0.7276,0.39886 1.0918,0.53911 0.80932,0.31166 -0.56985,-0.45884 -0.13319,-0.56589 0.63384,-0.15539 0.26529,0.14197 0.85277,0.28636 1.30552,0.32086 0.80999,0.0617 1.09667,0.34408 0.53831,0.5302 -0.15669,0.0522 -0.01,0.33004 0.32617,0.61736 0.48034,0.41065 0.53322,0.42198 0.24718,0.053 -0.55293,-0.7133 -0.2835,-0.72251 1.16674,-0.0399 1.54666,0.72804 1.7856,0.77716 1.05833,0.21761 z M 20.474345,54.824991 c -0.156837,-0.15683 -0.951878,0.25225 -0.951878,0.48978 0,0.13119 0.23271,0.0932 0.517134,-0.0844 0.284423,-0.17763 0.480058,-0.36003 0.434744,-0.40535 z m 88.080415,-0.0699 c -0.0899,-0.14552 -0.28259,-0.26458 -0.42811,-0.26458 -0.14552,0 -0.191,0.11906 -0.10106,0.26458 0.0899,0.14552 0.28258,0.26458 0.4281,0.26458 0.14552,0 0.191,-0.11906 0.10107,-0.26458 z m -1.86532,-0.50129 c -0.3705,-0.34892 -2.17126,-0.68255 -1.83885,-0.34069 0.14552,0.14965 0.62177,0.32295 1.05833,0.3851 0.43657,0.0622 0.84733,0.13085 0.91282,0.15265 0.0655,0.0218 0.006,-0.0669 -0.1323,-0.19706 z m 21.31219,-0.42475 c -0.21727,-0.2618 -0.23112,-0.39688 -0.0407,-0.39688 0.15877,0 0.22049,-0.17769 0.13715,-0.39488 -0.13436,-0.35012 -0.0444,-0.35012 0.79355,0 1.73488,0.72488 1.6469,0.38298 -0.12264,-0.47664 -0.96041,-0.46655 -1.92425,-0.99639 -2.14189,-1.17743 -0.21763,-0.18104 -0.77378,-0.40477 -1.23588,-0.49719 -0.4621,-0.0924 -0.90426,-0.27172 -0.98258,-0.39845 -0.19939,-0.32262 -1.16951,-0.28884 -1.16951,0.0407 0,0.14913 0.30382,0.38665 0.67515,0.52783 0.37133,0.14118 1.01624,0.63014 1.43313,1.08657 0.41689,0.45644 1.2144,1.10067 1.77225,1.43162 1.24232,0.73702 1.29483,0.75218 0.88197,0.25473 z m -1.68221,-1.10585 c -0.42922,-0.22489 -0.62416,-0.50122 -0.52883,-0.74965 0.19345,-0.50411 0.14232,-0.52001 1.14587,0.35619 0.91725,0.80086 0.57592,1.01852 -0.61704,0.39346 z m -6.51987,0.97356 c -0.21828,-0.14107 -0.51594,-0.25648 -0.66146,-0.25648 -0.14552,0 -0.086,0.11541 0.13229,0.25648 0.21828,0.14106 0.51594,0.25647 0.66146,0.25647 0.14552,0 0.086,-0.11541 -0.13229,-0.25647 z m -5.67319,-0.23975 c -0.0815,-0.13186 -0.38618,-0.1775 -0.67708,-0.10143 -0.72801,0.19038 -0.66252,0.34118 0.14818,0.34118 0.37239,0 0.61039,-0.10789 0.5289,-0.23975 z m 25.25236,-0.554 c 0,-0.14553 -0.20836,-0.26277 -0.46302,-0.26054 -0.3957,0.003 -0.40532,0.0414 -0.0661,0.26054 0.49932,0.32268 0.52917,0.32268 0.52917,0 z m 1.5875,0.0308 c 0,-0.12854 -0.24493,-0.29777 -0.54429,-0.37605 -0.44661,-0.1168 -0.48828,-0.0748 -0.23219,0.23372 0.34932,0.42091 0.77648,0.49921 0.77648,0.14233 z m -10.18189,-0.82873 c -0.0438,-0.59505 -0.57095,-1.23748 -0.81505,-0.99338 -0.12884,0.12883 0.60063,1.52667 0.79669,1.52667 0.0317,0 0.04,-0.23998 0.0184,-0.53329 z m -17.14186,0.10886 c -0.0879,-0.0879 -0.31612,-0.0973 -0.50711,-0.0209 -0.21107,0.0845 -0.14838,0.14716 0.15985,0.15985 0.27891,0.0115 0.43518,-0.0511 0.34726,-0.13896 z m 4.56958,-0.10473 c 0,-0.14553 0.26194,-0.26459 0.58208,-0.26459 0.9693,0 0.19049,-0.48443 -1.11125,-0.69121 -1.09012,-0.17316 -1.15997,-0.15197 -0.8275,0.25104 0.19972,0.2421 0.53417,0.44017 0.74322,0.44017 0.20905,0 0.30651,0.11906 0.21657,0.26459 -0.0899,0.14552 -0.0374,0.26458 0.11668,0.26458 0.15411,0 0.2802,-0.11906 0.2802,-0.26458 z m -5.29167,-0.42772 c 0,-0.0558 -0.50601,-0.0931 -1.12448,-0.0829 -0.79552,0.0131 -0.97499,0.0771 -0.61349,0.21872 0.47805,0.18723 1.73797,0.0887 1.73797,-0.13587 z m 24.87084,-0.24936 c 0,-0.22687 -0.10558,-0.34724 -0.23461,-0.2675 -0.12903,0.0798 -0.38173,-0.0323 -0.56156,-0.24896 -0.17983,-0.21668 -0.46121,-0.3902 -0.62529,-0.3856 -0.26989,0.008 1.02653,1.31455 1.30392,1.31455 0.0646,0 0.11754,-0.18562 0.11754,-0.41249 z m -26.59063,-0.43598 c 0.18485,-0.19692 0.0653,-0.23223 -0.39688,-0.11718 -0.3638,0.0906 -0.81028,0.1663 -0.99218,0.16829 -0.1819,0.002 -0.33073,0.13558 -0.33073,0.29688 0,0.34767 1.31689,0.0812 1.71979,-0.34799 z m 21.42938,0.32233 c 0.0897,-0.14515 -0.007,-0.19697 -0.21651,-0.11644 -0.20799,0.0798 -0.77972,-0.0997 -1.27051,-0.39891 -1.12218,-0.68414 -1.70501,-0.69491 -1.70501,-0.0315 0,0.36756 0.0899,0.43993 0.31462,0.2534 0.21101,-0.17512 0.60625,-0.13383 1.20008,0.12536 1.07932,0.4711 1.4661,0.50986 1.67733,0.16809 z m 6.88104,-0.3917 c -0.80354,-0.65865 -0.87564,-0.68909 -1.89096,-0.79828 -0.31243,-0.0336 -0.92612,-0.31607 -1.36376,-0.62769 -1.05681,-0.75252 -1.33633,-0.71981 -0.55167,0.0645 0.34726,0.34713 1.16717,0.78332 1.82201,0.96931 0.65485,0.18599 1.36497,0.49728 1.57805,0.69176 0.21309,0.19449 0.57027,0.35302 0.79375,0.35229 0.2611,-7.9e-4 0.12262,-0.23386 -0.38742,-0.65194 z m -10.71563,0.28469 c 0,-0.0572 -0.18477,-0.17489 -0.41062,-0.26155 -0.23545,-0.0904 -0.34166,-0.046 -0.24896,0.10398 0.15538,0.25141 0.65958,0.37186 0.65958,0.15757 z M 25.343301,50.786311 c 0.218281,-0.14107 0.277812,-0.25648 0.132291,-0.25648 -0.145521,0 -0.443177,0.11541 -0.661458,0.25648 -0.218281,0.14106 -0.277813,0.25648 -0.132292,0.25648 0.145521,0 0.443177,-0.11542 0.661459,-0.25648 z m 93.590839,-0.15985 c -0.0879,-0.0879 -0.31612,-0.0973 -0.50712,-0.0209 -0.21106,0.0845 -0.14837,0.14716 0.15986,0.15985 0.27891,0.0115 0.43518,-0.0511 0.34726,-0.13896 z m 3.19531,-0.35292 c -0.7777,-0.61174 -2.24455,-1.04961 -1.95688,-0.58415 0.10306,0.16674 0.41847,0.30317 0.70093,0.30317 0.28245,0 0.51355,0.11033 0.51355,0.24518 0,0.21742 0.47058,0.42748 1.16016,0.51788 0.12876,0.0169 -0.0592,-0.20005 -0.41776,-0.48208 z m 6.6039,0.14746 c -0.2524,-0.19166 -0.37509,-0.43229 -0.27265,-0.53473 0.10244,-0.10245 -0.038,-0.10021 -0.3121,0.005 -0.33646,0.12911 -0.43887,0.095 -0.31525,-0.10503 0.10304,-0.16672 -0.0805,-0.43672 -0.41962,-0.61745 -0.54722,-0.2916 -0.56928,-0.28064 -0.2396,0.11902 0.30778,0.3731 0.30778,0.44188 0,0.45128 -0.19972,0.006 0.0536,0.23923 0.56292,0.51808 1.06004,0.58034 1.67879,0.68211 0.9963,0.16386 z m 3.50162,0.23981 c 0,-0.15511 -1.48204,-0.93349 -1.7728,-0.93109 -0.11637,0.001 0.14561,0.2383 0.58217,0.52742 0.77676,0.51443 1.19063,0.65475 1.19063,0.40367 z m 7.50401,-0.80054 c -0.16102,-0.41963 -0.62485,-0.55056 -0.62485,-0.17639 0,0.2798 0.28922,0.57326 0.56496,0.57326 0.1167,0 0.14365,-0.17859 0.0599,-0.39687 z m -21.92145,-0.12849 c -0.0912,-0.14761 -0.32752,-0.26839 -0.52509,-0.26839 -0.19757,0 -0.3989,-0.1155 -0.44741,-0.25666 -0.0485,-0.14117 -1.45741,-0.31209 -3.1309,-0.37984 -2.31959,-0.0939 -2.69687,-0.0683 -1.5875,0.10787 2.20856,0.35063 3.17058,0.57234 3.28725,0.75758 0.0582,0.0924 0.66012,0.1994 1.33765,0.23788 0.78127,0.0444 1.1712,-0.0282 1.066,-0.19844 z m 6.19244,-7.9e-4 c -0.52155,-0.305 -2.72887,-0.81465 -2.48958,-0.57482 0.21419,0.21467 1.96823,0.7736 2.51249,0.80061 0.3339,0.0166 0.33026,-0.0193 -0.0229,-0.22579 z m 2.59709,-0.16285 c -0.0879,-0.0879 -0.31613,-0.0973 -0.50712,-0.0209 -0.21107,0.0845 -0.14837,0.14716 0.15985,0.15985 0.27892,0.0115 0.43519,-0.0511 0.34727,-0.13896 z m -0.45751,-0.38249 c 0.21828,-0.0112 0.0992,-0.1495 -0.26458,-0.30731 -0.99579,-0.43195 -1.5875,-0.50247 -1.5875,-0.18921 0,0.16806 -0.23897,0.20856 -0.59532,0.10089 -0.40161,-0.12133 -0.50922,-0.0924 -0.33073,0.0888 0.35501,0.36045 1.2036,0.55786 1.85209,0.43086 0.29104,-0.057 0.70776,-0.11281 0.92604,-0.12402 z m 11.11083,0.0793 c -0.002,-0.24122 -1.61366,-1.18484 -1.76505,-1.03345 -0.0591,0.0591 0.2844,0.35852 0.76344,0.66526 0.98865,0.63306 1.00389,0.63866 1.00161,0.36819 z m -8.28861,-0.42672 c 0,-0.22516 -0.19056,-0.31074 -0.50743,-0.22787 -0.39157,0.1024 -0.42681,0.18381 -0.15434,0.35652 0.49963,0.31671 0.66177,0.28519 0.66177,-0.12865 z m 4.05695,-0.16859 c -0.36381,-0.28457 -0.75779,-0.52004 -0.87552,-0.52328 -0.11772,-0.003 -0.15396,-0.1031 -0.0805,-0.22192 0.0734,-0.11882 -0.21719,-0.42321 -0.64584,-0.67642 -0.42865,-0.25321 -0.77936,-0.34847 -0.77936,-0.2117 0,0.13678 0.25066,0.31424 0.55704,0.39436 0.31304,0.0819 0.50281,0.2982 0.43323,0.49388 -0.0736,0.20708 0.2636,0.52792 0.83202,0.79161 1.25675,0.58299 1.35345,0.57494 0.55896,-0.0465 z M 32.354759,48.405061 c -0.08051,-0.41806 0.04767,-0.53574 0.610505,-0.56047 l 0.712412,-0.0313 -0.79375,-0.20197 c -0.703112,-0.17891 -0.647721,-0.20555 0.48509,-0.23328 l 1.278837,-0.0313 -0.504659,-0.69279 c -0.614145,-0.84309 -2.339715,-1.50147 -3.003777,-1.14607 -0.317889,0.17013 -0.495737,0.1452 -0.570804,-0.08 -0.07559,-0.22676 -0.40513,-0.12462 -1.073992,0.33284 -0.53072,0.36299 -0.844441,0.70099 -0.697156,0.75113 0.147288,0.0501 0.431784,-0.0449 0.632217,-0.21128 0.232738,-0.19316 0.422754,-0.20807 0.525835,-0.0413 0.08878,0.14365 -0.04945,0.38393 -0.307173,0.53397 -0.367535,0.21397 -0.383,0.27635 -0.07171,0.28926 0.30462,0.0126 0.277487,0.10676 -0.116716,0.40492 -0.501914,0.37963 -0.500411,0.38846 0.06615,0.38846 0.318855,0 0.579737,0.11906 0.579737,0.26459 0,0.14552 0.446484,0.2664 0.992187,0.26863 0.738024,0.003 0.890522,0.0697 0.595313,0.26053 -0.322604,0.20849 -0.288314,0.25724 0.183245,0.26053 0.438602,0.003 0.55526,-0.12503 0.478213,-0.52511 z m 105.562221,-0.0539 c -0.1472,-0.38361 -2.1687,-1.53361 -2.6958,-1.53361 -0.14471,0 -0.57964,-0.29335 -0.96651,-0.65189 -0.39142,-0.36276 -0.87795,-0.5849 -1.09697,-0.50086 -0.27163,0.10424 -0.39357,-0.0217 -0.39357,-0.40644 0,-0.35609 -0.16727,-0.55601 -0.46302,-0.55343 -0.3957,0.003 -0.40531,0.0414 -0.0661,0.26054 0.63625,0.41117 0.15314,0.31045 -2.04235,-0.4258 -1.36132,-0.45652 -2.73089,-0.70902 -4.04307,-0.74539 -1.09141,-0.0303 -2.28203,-0.14126 -2.64583,-0.2467 l -0.66146,-0.19169 0.63536,0.37251 c 0.42299,0.24799 0.51832,0.41153 0.28519,0.48924 -0.19885,0.0663 0.0125,0.26697 0.48911,0.46438 0.46161,0.1912 0.8393,0.44852 0.8393,0.57183 0,0.12329 0.16784,0.15976 0.37299,0.081 0.20515,-0.0787 0.71116,0.0274 1.12448,0.23576 0.41331,0.20839 1.09329,0.461 1.51105,0.56137 0.69884,0.1679 0.72544,0.14837 0.33276,-0.24432 -0.23475,-0.23474 -0.54678,-0.35266 -0.69342,-0.26203 -0.14664,0.0906 -0.26661,0.0387 -0.26661,-0.11542 0,-0.35852 0.35607,-0.3533 1.61428,0.0237 0.55782,0.16712 0.96191,0.38851 0.89796,0.49197 -0.0639,0.10346 0.16882,0.15681 0.51724,0.11857 0.34842,-0.0383 1.18906,0.21172 1.86809,0.55549 0.73728,0.37326 1.10555,0.46954 0.91424,0.23902 -0.26128,-0.31483 -0.22901,-0.38675 0.17506,-0.39005 0.40842,-0.003 0.42707,-0.0473 0.1062,-0.2502 -0.21406,-0.13538 -0.31753,-0.31782 -0.22993,-0.40543 0.0876,-0.0876 0.36084,0.0423 0.6072,0.28865 0.3622,0.3622 0.38089,0.49331 0.0976,0.68509 -0.27722,0.1877 -0.2675,0.22235 0.0466,0.16614 0.51462,-0.0921 2.32995,0.67716 3.17105,1.34376 0.72513,0.5747 0.88687,0.56837 0.65888,-0.0258 z m -5.9466,-2.59194 c -0.23846,-0.15411 -0.2711,-0.2581 -0.0818,-0.26054 0.17331,-0.002 0.3887,0.11501 0.47864,0.26054 0.20301,0.32848 0.11142,0.32848 -0.39688,0 z m -4.54752,-1.50366 c 0.19099,-0.0764 0.4192,-0.067 0.50712,0.0209 0.0879,0.0879 -0.0684,0.15046 -0.34727,0.13897 -0.30823,-0.0127 -0.37092,-0.0754 -0.15985,-0.15985 z m 13.27877,4.48995 c -0.21828,-0.0808 -0.57547,-0.27977 -0.79375,-0.44213 -0.34487,-0.25653 -0.34929,-0.23454 -0.0337,0.16781 0.19972,0.25467 0.55691,0.45362 0.79375,0.44214 0.36022,-0.0175 0.36574,-0.0449 0.0337,-0.16782 z m -24.87083,-0.34046 c -0.3638,-0.11651 -0.89958,-0.22188 -1.19063,-0.23416 -0.43593,-0.0184 -0.45924,0.0229 -0.13229,0.23416 0.21828,0.14106 0.75406,0.24643 1.19063,0.23416 0.77783,-0.0219 0.78048,-0.0266 0.13229,-0.23416 z m 14.81667,0.14791 c 0,-0.0642 -0.11907,-0.19027 -0.26459,-0.2802 -0.14552,-0.0899 -0.26458,-0.0374 -0.26458,0.11667 0,0.15411 0.11906,0.2802 0.26458,0.2802 0.14552,0 0.26459,-0.0525 0.26459,-0.11667 z m 3.96875,-0.29194 c -0.81796,-0.48209 -2.38806,-1.18323 -2.612,-1.1664 -0.25613,0.0192 2.70863,1.54963 3.00887,1.55315 0.14552,0.002 -0.0331,-0.17233 -0.39687,-0.38675 z m -15.875,-0.12055 c -0.21829,-0.14107 -0.57547,-0.24994 -0.79375,-0.24194 -0.26169,0.01 -0.21663,0.092 0.13229,0.24194 0.72736,0.31255 1.14511,0.31255 0.66146,0 z m -94.516941,-1.47562 c 0.06055,-0.65393 0.0274,-0.70099 -0.214699,-0.30476 -0.157466,0.25772 -0.398047,0.39953 -0.534624,0.31512 -0.284167,-0.17563 -0.341919,0.48972 -0.06642,0.76521 0.356061,0.35606 0.745225,-0.0139 0.815743,-0.77557 z m 102.961551,0.85344 c -0.0606,-0.0512 -0.49719,-0.22356 -0.97014,-0.38311 -0.96964,-0.32713 -1.18071,-0.16495 -0.26458,0.20329 0.58612,0.23559 1.44994,0.36139 1.23472,0.17982 z m -27.362315,-0.43616 c -0.0899,-0.14552 -0.36486,-0.25621 -0.61093,-0.24598 -0.36473,0.0152 -0.34962,0.0606 0.0818,0.24598 0.708005,0.30424 0.717205,0.30424 0.52917,0 z m -74.366451,-0.2346 c 0.07975,-0.12903 -0.03229,-0.38174 -0.248968,-0.56157 -0.327848,-0.27209 -0.393962,-0.23271 -0.393962,0.23461 0,0.56763 0.37601,0.75884 0.64293,0.32696 z m 75.160196,-0.55915 c 0.10144,-0.16414 -0.31949,-0.25033 -1.108865,-0.22703 l -1.272384,0.0375 1.058334,0.18949 c 0.58208,0.10422 1.081075,0.20639 1.108865,0.22704 0.0278,0.0206 0.12412,-0.0815 0.21405,-0.22704 z m 7.59216,-0.10044 c 0.3632,0.22447 0.23437,-0.18062 -0.19352,-0.6085 -0.30733,-0.30733 -0.71096,-0.36463 -1.65365,-0.23477 -0.94976,0.13084 -1.15246,0.10131 -0.8502,-0.12385 0.32458,-0.24179 0.32759,-0.27691 0.0165,-0.19282 -0.66488,0.17976 -0.60817,0.70545 0.0951,0.88197 0.37313,0.0936 0.62055,0.26391 0.54982,0.37835 -0.0707,0.11444 0.31048,0.10905 0.84712,-0.012 0.53665,-0.12104 1.07159,-0.16081 1.18876,-0.0884 z m 17.27867,0.10045 c -0.0899,-0.14552 -0.36485,-0.26276 -0.61093,-0.26053 -0.38557,0.003 -0.39255,0.0395 -0.0505,0.26053 0.51815,0.33486 0.86841,0.33486 0.66146,0 z m -10.25812,-0.42443 c -0.0879,-0.0879 -0.31612,-0.0973 -0.50711,-0.0209 -0.21107,0.0845 -0.14838,0.14716 0.15985,0.15985 0.27891,0.0115 0.43518,-0.051 0.34726,-0.13896 z m 7.3477,-0.6339 c -0.0899,-0.14552 -0.36485,-0.26276 -0.61092,-0.26053 -0.38557,0.003 -0.39256,0.0395 -0.0505,0.26053 0.51815,0.33486 0.86841,0.33486 0.66145,0 z m -22.29154,-0.26458 c 0.30338,0 0.48164,-0.07 0.39613,-0.15549 -0.16827,-0.16827 -2.299992,-0.23702 -3.37229,-0.10875 -0.453615,0.0543 -0.287341,0.13686 0.529166,0.26287 0.654839,0.10105 1.349189,0.1427 1.542999,0.0925 0.1938,-0.0502 0.60059,-0.0912 0.903995,-0.0912 z m 9.65218,0.10473 c -0.0879,-0.0879 -0.31613,-0.0973 -0.50712,-0.0209 -0.21107,0.0845 -0.14837,0.14716 0.15985,0.15985 0.27892,0.0115 0.43519,-0.0511 0.34727,-0.13896 z m 1.39457,-0.10473 c -0.21828,-0.14107 -0.51594,-0.25648 -0.66146,-0.25648 -0.14552,0 -0.086,0.11541 0.13229,0.25648 0.21829,0.14106 0.51594,0.25647 0.66146,0.25647 0.14552,0 0.086,-0.11541 -0.13229,-0.25647 z m -3.43958,-0.52917 c -0.3638,-0.11651 -1.25677,-0.2043 -1.98438,-0.19508 l -1.32291,0.0167 1.4552,0.17834 c 2.12286,0.26015 2.6644,0.26015 1.85209,0 z m 10.58333,0 c -0.21828,-0.14107 -0.57547,-0.24994 -0.79375,-0.24194 -0.26169,0.01 -0.21662,0.092 0.13229,0.24194 0.72737,0.31256 1.14511,0.31256 0.66146,0 z m -8.92969,-0.17523 c -0.1819,-0.0734 -0.47955,-0.0734 -0.66145,0 -0.18191,0.0734 -0.0331,0.13345 0.33072,0.13345 0.36381,0 0.51264,-0.06 0.33073,-0.13345 z m -18.394044,-0.24921 c -0.08792,-0.0879 -0.316125,-0.0973 -0.507119,-0.0209 -0.211066,0.0845 -0.148373,0.14715 0.159853,0.15985 0.278913,0.0115 0.435184,-0.051 0.347266,-0.13897 z m 31.424774,-0.10473 c -0.29104,-0.12506 -0.70776,-0.22739 -0.92604,-0.22739 -0.25016,0 -0.20125,0.0841 0.13229,0.22739 0.29105,0.12507 0.70776,0.22739 0.92605,0.22739 0.25015,0 0.20125,-0.0841 -0.1323,-0.22739 z m 10.30519,-0.24993 c -0.73507,-0.26172 -1.71142,-0.66974 -2.16967,-0.90671 -0.96706,-0.50008 -1.47356,-0.55332 -1.33592,-0.14041 0.12192,0.36578 3.29502,1.52112 4.18061,1.52218 0.45419,5.3e-4 0.24267,-0.14832 -0.67502,-0.47506 z m -95.424053,0.0803 c 0.877607,-0.23509 0.574302,-0.7074 -0.612645,-0.95401 -0.898245,-0.18662 -1.109149,-0.12996 -1.694331,0.45522 l -0.66838,0.66838 1.184614,-0.004 c 0.651536,-0.002 1.45737,-0.0767 1.790742,-0.16598 z m 37.604114,-0.2645 c 0.265504,-0.22897 -0.943583,-0.0602 -1.300869,0.1816 -0.28984,0.19614 -0.182806,0.22068 0.396875,0.091 0.436563,-0.0977 0.84336,-0.22033 0.903994,-0.27262 z m 17.219965,0.16951 c 0,-0.14552 -0.112035,-0.26458 -0.248968,-0.26458 -0.136932,0 -0.322553,0.11906 -0.41249,0.26458 -0.08994,0.14552 0.02209,0.26458 0.248967,0.26458 0.22687,0 0.412491,-0.11906 0.412491,-0.26458 z m 6.278339,0.10473 c -0.08791,-0.0879 -0.31612,-0.0973 -0.507115,-0.0209 -0.211066,0.0845 -0.148373,0.14716 0.159854,0.15985 0.278911,0.0115 0.435181,-0.051 0.347261,-0.13896 z m -56.946049,-0.6339 c -0.08994,-0.14552 -0.282583,-0.26458 -0.428104,-0.26458 -0.145521,0 -0.191,0.11906 -0.101063,0.26458 0.08994,0.14552 0.282583,0.26459 0.428104,0.26459 0.145521,0 0.191,-0.11907 0.101063,-0.26459 z m 28.508855,0.0894 c -0.181901,-0.0734 -0.479557,-0.0734 -0.661458,0 -0.181901,0.0734 -0.03307,0.13345 0.330729,0.13345 0.363802,0 0.51263,-0.06 0.330729,-0.13345 z m 12.562198,0.0154 c -0.08792,-0.0879 -0.316125,-0.0973 -0.507119,-0.0209 -0.211066,0.0845 -0.148373,0.14716 0.159853,0.15985 0.278913,0.0115 0.435184,-0.051 0.347266,-0.13896 z m 42.597911,0 c -0.0879,-0.0879 -0.31612,-0.0973 -0.50712,-0.0209 -0.21106,0.0845 -0.14837,0.14716 0.15986,0.15985 0.27891,0.0115 0.43518,-0.051 0.34726,-0.13896 z m 3.11437,-0.40457 c -0.76426,-0.39236 -1.71233,-0.57168 -3.41196,-0.64531 -1.29449,-0.0561 -2.60418,-0.16971 -2.91041,-0.2525 -0.4882,-0.13199 -0.50039,-0.11512 -0.099,0.13693 0.25181,0.1581 0.80576,0.31262 1.231,0.34336 0.42523,0.0308 0.71904,0.14384 0.6529,0.25131 -0.0661,0.10748 0.0348,0.13624 0.22422,0.0639 0.18946,-0.0723 1.1779,0.0342 2.19655,0.23674 1.01865,0.20251 2.14974,0.37736 2.51354,0.38854 0.56429,0.0174 0.506,-0.0595 -0.39687,-0.523 z m -38.496874,0.0353 c 0.218281,-0.14107 0.277812,-0.25648 0.132292,-0.25648 -0.145521,0 -0.443177,0.11541 -0.661459,0.25648 -0.218281,0.14106 -0.277812,0.25648 -0.132291,0.25648 0.14552,0 0.443177,-0.11542 0.661458,-0.25648 z m -8.856541,-0.47814 c -0.08146,-0.0815 -0.294955,-1.7e-4 -0.474432,0.18065 -0.259361,0.26131 -0.228971,0.2917 0.148113,0.14812 0.260938,-0.0994 0.407781,-0.24731 0.326319,-0.32877 z m 23.871645,0.29568 c -0.25467,-0.0665 -0.67138,-0.0665 -0.92605,0 -0.25466,0.0665 -0.0463,0.12101 0.46302,0.12101 0.50933,0 0.71769,-0.0545 0.46303,-0.12101 z m 12.63385,-0.34678 c -0.0899,-0.14552 -0.36485,-0.25621 -0.61093,-0.24598 -0.36472,0.0152 -0.34962,0.0606 0.0818,0.24598 0.708,0.30424 0.7172,0.30424 0.52917,0 z m 10.71563,-0.39687 c -0.187,-0.22532 -0.39457,-0.35509 -0.46127,-0.28839 -0.14577,0.14577 0.54854,0.93949 0.69741,0.79726 0.0571,-0.0546 -0.0491,-0.28356 -0.23614,-0.50887 z m -60.644652,-0.0168 c 0.533595,-0.11537 0.559686,-0.17781 0.217336,-0.52016 -0.213979,-0.21398 -0.605919,-0.38723 -0.870974,-0.385 -0.381997,0.003 -0.40527,0.0526 -0.112241,0.23812 0.252433,0.15984 0.05523,0.23408 -0.621771,0.23408 -0.545296,0 -1.092552,0.1012 -1.21612,0.22489 -0.253903,0.25416 1.67695,0.40846 2.60377,0.20807 z m 53.605932,-0.15956 c -0.0749,-0.12127 -0.45666,-0.23457 -0.84825,-0.25179 l -0.71199,-0.0313 0.79375,-0.20197 c 0.78986,-0.20099 0.79029,-0.20213 0.0878,-0.23328 -1.28488,-0.057 -2.1426,0.59602 -1.07997,0.82219 0.85054,0.18103 1.89657,0.11927 1.75868,-0.10384 z m 5.68417,-0.10066 c 0.0659,-0.0659 -0.27705,-0.11983 -0.76212,-0.11983 -0.48507,0 -0.79619,-0.0858 -0.69137,-0.19058 0.10482,-0.10482 0.63068,-0.1738 1.16858,-0.1533 0.61962,0.0236 0.39627,-0.0654 -0.6095,-0.24294 -0.87313,-0.15412 -1.64703,-0.36133 -1.71979,-0.46048 -0.0728,-0.0991 -0.42995,-0.0945 -0.79375,0.0103 -0.3923,0.113 -0.47941,0.20126 -0.21406,0.2169 0.24608,0.0145 0.50768,0.1239 0.58134,0.24309 0.0737,0.11919 -0.24673,0.18201 -0.71199,0.1396 l -0.84592,-0.0771 0.80281,0.21218 c 0.44155,0.11669 1.01997,0.3337 1.28537,0.48222 0.44952,0.25157 2.24165,0.20871 2.5104,-0.06 z m -9.66173,-0.12944 c -0.37507,-0.37507 -2.4366,-0.68405 -2.0806,-0.31183 0.24117,0.25216 0.97243,0.4562 1.97115,0.54999 0.26472,0.0249 0.29865,-0.049 0.10945,-0.23816 z m 1.41962,0.11434 c -0.0879,-0.0879 -0.31613,-0.0973 -0.50712,-0.0209 -0.21107,0.0845 -0.14837,0.14715 0.15985,0.15985 0.27892,0.0115 0.43519,-0.0511 0.34727,-0.13897 z m -75.731467,-0.36931 c 0.08994,-0.14552 -0.02209,-0.26458 -0.248968,-0.26458 -0.226869,0 -0.412491,0.11906 -0.412491,0.26458 0,0.14552 0.112036,0.26458 0.248968,0.26458 0.136933,0 0.322554,-0.11906 0.412491,-0.26458 z m 50.637497,-0.69052 c 0.24498,-0.26785 -1.387107,0.16175 -1.671733,0.44004 -0.142367,0.1392 0.124653,0.13473 0.631246,-0.0106 0.482891,-0.13849 0.951111,-0.33175 1.040487,-0.42947 z m 26.21977,-0.63499 c -0.20208,-0.12489 -0.45756,-0.17137 -0.56773,-0.10328 -0.11017,0.0681 -0.4403,-0.0261 -0.73363,-0.20927 -0.39404,-0.24608 -0.61082,-0.25558 -0.83003,-0.0364 -0.1871,0.1871 -0.87368,0.24438 -1.85869,0.15506 -1.02075,-0.0926 -1.56198,-0.0436 -1.56198,0.14129 0,0.3866 0.78096,0.46696 3.55505,0.36583 1.45796,-0.0531 2.22357,-0.17325 1.99701,-0.31327 z m 3.90128,0.10732 c -0.0879,-0.0879 -0.31612,-0.0973 -0.50712,-0.0209 -0.21106,0.0845 -0.14837,0.14715 0.15986,0.15985 0.27891,0.0115 0.43518,-0.051 0.34726,-0.13897 z m -40.005712,-0.5828 c -0.08146,-0.0815 -0.294955,-1.7e-4 -0.474432,0.18066 -0.25936,0.2613 -0.22897,0.29169 0.148114,0.14811 0.260937,-0.0994 0.407781,-0.2473 0.326318,-0.32877 z m 43.445302,0.31822 c -0.0879,-0.0879 -0.31613,-0.0973 -0.50712,-0.0209 -0.21107,0.0845 -0.14838,0.14716 0.15985,0.15985 0.27891,0.0115 0.43518,-0.051 0.34727,-0.13896 z m -39.086677,-0.22144 c 0,-0.0642 -0.119063,-0.19026 -0.264584,-0.2802 -0.145521,-0.0899 -0.264583,-0.0374 -0.264583,0.11668 0,0.15411 0.119062,0.2802 0.264583,0.2802 0.145521,0 0.264584,-0.0525 0.264584,-0.11668 z m 27.582647,-0.31982 c 0.69114,-0.079 1.19012,-0.25129 1.10887,-0.38278 -0.0813,-0.13148 0.14991,-0.23905 0.51371,-0.23905 0.3638,0 0.73183,-0.11387 0.81784,-0.25303 0.086,-0.13917 0.35319,-0.17751 0.59373,-0.0852 0.31617,0.12132 0.14886,0.25789 -0.60379,0.49286 -1.02206,0.31908 -1.01114,0.32265 0.59567,0.19492 1.01065,-0.0803 1.82038,-0.0126 2.11667,0.17702 0.3429,0.21947 0.35973,0.27066 0.059,0.17934 -0.23148,-0.0703 -0.58867,-0.01 -0.79375,0.13401 -0.25541,0.17932 0.0856,0.21401 1.08233,0.11011 0.80036,-0.0834 1.81239,-0.16346 2.24895,-0.17785 l 0.79375,-0.0262 -0.86932,-0.25073 c -0.47813,-0.1379 -0.79852,-0.36528 -0.71199,-0.5053 0.0865,-0.14001 0.0412,-0.25457 -0.10081,-0.25457 -0.14199,0 -0.29784,0.1029 -0.34635,0.22867 -0.0485,0.12577 -0.62397,0.14067 -1.27882,0.0331 l -1.19062,-0.19555 1.05833,-0.0661 1.05833,-0.0661 -1.32291,-0.20395 c -0.72761,-0.11218 -1.51906,-0.28397 -1.7588,-0.38176 -0.24618,-0.10043 -0.58822,-0.0147 -0.78593,0.19693 -0.19254,0.20611 -0.55767,0.32045 -0.81142,0.25409 -0.25374,-0.0663 -0.65271,0.0707 -0.88661,0.30461 -0.23388,0.23389 -0.77393,0.44014 -1.2001,0.45833 -0.42617,0.0182 -0.89391,0.0628 -1.03943,0.0992 -0.14553,0.0364 -0.56224,0.081 -0.92605,0.0992 -0.3638,0.0182 -0.66145,0.16516 -0.66145,0.3266 0,0.19397 0.33652,0.23406 0.99218,0.1182 0.54571,-0.0964 1.55767,-0.24001 2.2488,-0.31906 z m 9.45902,0.31982 c 0,-0.0642 -0.11907,-0.19026 -0.26459,-0.2802 -0.14552,-0.0899 -0.26458,-0.0374 -0.26458,0.11668 0,0.15411 0.11906,0.2802 0.26458,0.2802 0.14552,0 0.26459,-0.0525 0.26459,-0.11668 z m 0.98667,-0.0432 c -0.0879,-0.0879 -0.31612,-0.0973 -0.50712,-0.0209 -0.21106,0.0845 -0.14837,0.14716 0.15986,0.15985 0.27891,0.0115 0.43518,-0.0511 0.34726,-0.13896 z m -18.56612,-0.34448 c -0.0815,-0.13186 -0.38617,-0.1775 -0.67707,-0.10143 -0.72801,0.19038 -0.66252,0.34118 0.14817,0.34118 0.37239,0 0.6104,-0.10789 0.5289,-0.23975 z m -0.83319,-0.42458 c 1.48799,-0.45139 2.05416,-0.50093 1.4793,-0.12942 -0.28517,0.18429 -0.0201,0.25761 0.94162,0.26053 0.73617,0.002 1.55877,-0.15702 1.82799,-0.35388 0.85139,-0.62255 -3.68689,-0.52489 -4.8779,0.10497 -1.14345,0.6047 -1.03992,0.62408 0.62899,0.1178 z m 5.54818,-1.39038 c 0.64324,-0.37416 -0.74863,-0.53682 -2.23243,-0.26088 -1.35847,0.25263 -1.5566,0.34809 -1.03136,0.49692 0.64311,0.18222 2.81473,0.0252 3.26379,-0.23604 z m -21.002207,-0.47746 c 0,-0.0728 -0.238125,-0.005 -0.529167,0.15092 -0.291042,0.15576 -0.529167,0.34273 -0.529167,0.41549 0,0.0728 0.238125,0.005 0.529167,-0.15091 0.291042,-0.15576 0.529167,-0.34273 0.529167,-0.4155 z m 16.536457,0.4155 c 0.51018,-0.21923 0.50836,-0.22806 -0.0505,-0.24599 -0.31884,-0.0102 -0.65329,0.10047 -0.74322,0.24599 -0.19341,0.31294 0.0655,0.31294 0.79375,0 z m 6.90933,-0.33885 c 0.26478,-0.26477 -1.27468,-0.23194 -1.69742,0.0362 -0.21516,0.13647 0.003,0.20635 0.58138,0.18626 0.50915,-0.0177 1.01137,-0.11779 1.11604,-0.22246 z m -18.286412,-0.98407 c -0.08994,-0.14552 0.04194,-0.26458 0.293066,-0.26458 0.251124,0 0.382346,-0.0742 0.291607,-0.16498 -0.259352,-0.25935 -1.034192,0.13033 -0.850413,0.42769 0.09057,0.14655 0.224208,0.26646 0.296969,0.26646 0.07276,0 0.05871,-0.11907 -0.03123,-0.26459 z m 3.764802,0.10473 c -0.0879,-0.0879 -0.316125,-0.0973 -0.507115,-0.0209 -0.21107,0.0845 -0.14838,0.14715 0.15985,0.15985 0.278915,0.0115 0.435185,-0.0511 0.347265,-0.13897 z m 9.1204,-0.15764 c -0.24694,-0.24695 -0.38805,-0.24695 -0.635,0 -0.24694,0.24694 -0.17639,0.3175 0.3175,0.3175 0.49389,0 0.56445,-0.0706 0.3175,-0.3175 z m -18.176869,-0.74084 c 0.08994,-0.14552 0.04446,-0.26458 -0.101063,-0.26458 -0.145521,0 -0.338167,0.11906 -0.428104,0.26458 -0.08994,0.14552 -0.04446,0.26459 0.101063,0.26459 0.145521,0 0.338167,-0.11907 0.428104,-0.26459 z m 5.953125,-0.0934 c 1.141714,-0.1525 1.205873,-0.19858 0.610455,-0.43841 -0.603779,-0.24319 -1.798527,-0.007 -2.641468,0.52196 -0.399584,0.25079 -0.323345,0.27723 0.443513,0.15383 0.509323,-0.082 1.223698,-0.18879 1.5875,-0.23738 z m 3.968744,-0.17118 c -0.51814,-0.33486 -0.8684,-0.33486 -0.66145,0 0.0899,0.14552 0.36485,0.26276 0.61092,0.26053 0.38557,-0.003 0.39256,-0.0395 0.0505,-0.26053 z m -10.847911,-0.10399 c 0,-0.0572 -0.184777,-0.17488 -0.410617,-0.26155 -0.235458,-0.0904 -0.341662,-0.046 -0.248968,0.10398 0.155379,0.25141 0.659585,0.37186 0.659585,0.15757 z M 62.509598,100.57971 c -0.364564,-0.26117 -0.452567,-1.039709 -0.139404,-1.233259 0.145113,-0.0897 0.341164,0.14501 0.435668,0.52154 0.190199,0.757809 0.09323,0.990739 -0.296264,0.711719 z m 117.534232,-0.37183 c -0.17389,-0.11055 -0.25662,-0.20352 -0.18386,-0.20661 0.0728,-0.003 2.33495,-0.0626 5.02708,-0.132189 2.69214,-0.0696 5.35572,-0.23824 5.91908,-0.3747 0.56336,-0.13646 1.15981,-0.1961 1.32545,-0.13254 0.16563,0.0636 0.86556,0.0101 1.55539,-0.11876 1.30697,-0.24417 1.80171,0.0709 0.52664,0.33542 -3.79181,0.786539 -13.26099,1.207129 -14.16978,0.629379 z M 63.31101,99.734231 c -0.09933,-0.31298 -0.121076,-0.62858 -0.04831,-0.70134 0.07276,-0.0728 0.213563,0.12378 0.312898,0.43675 0.09934,0.31298 0.121076,0.628579 0.04832,0.701339 -0.07276,0.0728 -0.213564,-0.12378 -0.312899,-0.436749 z m 60.74276,0.11024 c 0.0127,-0.30823 0.0754,-0.37092 0.15985,-0.15985 0.0764,0.19099 0.067,0.419199 -0.0209,0.507109 -0.0879,0.0879 -0.15046,-0.0684 -0.13897,-0.347259 z m 54.48328,0.179109 c 0,-0.131899 0.23813,-0.177539 0.52917,-0.101429 0.29104,0.0761 0.52916,0.184019 0.52916,0.239809 0,0.0558 -0.23812,0.10143 -0.52916,0.10143 -0.29104,0 -0.52917,-0.10791 -0.52917,-0.23981 z M 64.501635,99.718611 c 0,-0.15411 0.119063,-0.20661 0.264583,-0.11668 0.145521,0.0899 0.264584,0.21603 0.264584,0.2802 0,0.0642 -0.119063,0.11668 -0.264584,0.11668 -0.14552,0 -0.264583,-0.12609 -0.264583,-0.2802 z m -10.120313,-2.82921 c -0.254661,-0.0574 -0.463021,-0.22611 -0.463021,-0.37488 0,-0.14876 -0.23646,-0.60256 -0.525467,-1.00843 -0.434541,-0.61026 -0.502883,-1.02938 -0.394947,-2.4221 0.152477,-1.96747 1.089782,-4.17207 1.78031,-4.1874 0.467794,-0.0104 0.569953,0.39822 0.472858,1.89134 -0.05994,0.92183 0.378423,1.72216 1.062146,1.93917 0.461569,0.1465 0.491488,0.23632 0.198718,0.59662 -0.295309,0.36343 -0.27836,0.39932 0.118362,0.25064 0.772861,-0.28964 0.55754,0.73413 -0.330729,1.57252 -0.436563,0.41204 -0.79375,0.88381 -0.79375,1.04836 0,0.44445 -0.597125,0.81307 -1.12448,0.69416 z m 99.081718,-2.76973 c -0.38005,-0.45792 -0.0363,-1.04699 0.43938,-0.75299 0.24608,0.15209 0.27833,0.35526 0.10543,0.66421 -0.2058,0.36776 -0.30048,0.38318 -0.54481,0.0888 z m -80.500045,-2.46163 c -0.184076,-0.2218 -0.281594,-0.45636 -0.216707,-0.52125 0.06489,-0.0649 0.318815,0.11659 0.564282,0.40327 0.245467,0.28669 0.342984,0.52125 0.216707,0.52125 -0.126281,0 -0.380207,-0.18147 -0.564282,-0.40327 z m -16.928027,-3.26967 c 0,-0.14552 0.119063,-0.33817 0.264584,-0.4281 0.14552,-0.0899 0.264583,-0.0445 0.264583,0.10106 0,0.14552 -0.119063,0.33817 -0.264583,0.4281 -0.145521,0.0899 -0.264584,0.0445 -0.264584,-0.10106 z m 23.83339,-0.21405 c -0.03018,-0.45532 0.438044,-0.67404 0.663167,-0.30978 0.114113,0.18464 0.07719,0.23916 -0.09141,0.13496 -0.155577,-0.0961 -0.343167,-0.0252 -0.416866,0.15756 -0.09591,0.23789 -0.139941,0.2428 -0.15489,0.0172 z m -19.86464,-8.03488 c 0,-0.15411 0.119063,-0.20661 0.264584,-0.11667 0.145521,0.0899 0.264583,0.21602 0.264583,0.2802 0,0.0642 -0.119062,0.11667 -0.264583,0.11667 -0.145521,0 -0.264584,-0.12609 -0.264584,-0.2802 z M 45.595227,66.944171 c -0.08373,-0.13546 -0.0437,-0.31337 0.08895,-0.39535 0.132646,-0.082 0.309446,0.0289 0.392888,0.2463 0.164491,0.42866 -0.233035,0.55163 -0.481838,0.14905 z m 0.120991,-1.07661 c 0,-0.14552 0.12609,-0.26458 0.280199,-0.26458 0.154109,0 0.206613,0.11906 0.116676,0.26458 -0.08994,0.14552 -0.216027,0.26458 -0.280199,0.26458 -0.06417,0 -0.116676,-0.11906 -0.116676,-0.26458 z m -2.050521,-0.90243 c -1.166127,-0.35982 -1.078907,-0.54008 0.299532,-0.61906 1.106858,-0.0634 2.089936,0.47699 1.6564,0.91052 -0.09349,0.0935 -0.169994,0.0269 -0.169994,-0.14799 0,-0.21024 -0.156896,-0.24347 -0.463021,-0.0981 -0.259139,0.12309 -0.841661,0.10309 -1.322917,-0.0454 z m -1.732063,-3.09374 c 0.209272,-0.20927 0.430408,-0.21155 0.780521,-0.008 0.428262,0.24893 0.392242,0.28494 -0.292,0.292 -0.569206,0.006 -0.701466,-0.071 -0.488521,-0.28395 z m -18.014817,-2.0553 c -0.476294,-0.5263 -0.471841,-0.53481 0.250648,-0.47928 0.404556,0.0311 0.790085,0.22012 0.85673,0.42006 0.06833,0.20498 6.61e-4,0.28904 -0.155138,0.19275 -0.151971,-0.0939 -0.31929,-0.0418 -0.371821,0.11576 -0.05382,0.16147 -0.307151,0.0527 -0.580419,-0.24929 z m -8.3651,-5.5902 c 0,-0.14552 0.126089,-0.26458 0.280198,-0.26458 0.154109,0 0.206614,0.11906 0.116677,0.26458 -0.08994,0.14552 -0.216026,0.26459 -0.280198,0.26459 -0.06417,0 -0.116677,-0.11907 -0.116677,-0.26459 z m 130.175003,-0.70194 c -0.58212,-0.30678 -0.59799,-0.34976 -0.1323,-0.35837 0.48777,-0.009 0.47743,-0.0521 -0.13229,-0.55083 -0.58593,-0.47926 -0.59418,-0.50811 -0.0722,-0.25264 0.53227,0.26052 1.3016,1.28445 1.08584,1.44518 -0.0482,0.0359 -0.38524,-0.0916 -0.74904,-0.28334 z m -2.51355,-1.41472 c -0.0899,-0.14553 -0.0374,-0.26459 0.11668,-0.26459 0.15411,0 0.2802,0.11906 0.2802,0.26459 0,0.14552 -0.0525,0.26458 -0.11668,0.26458 -0.0642,0 -0.19026,-0.11906 -0.2802,-0.26458 z m 0.92605,-0.52917 c 0,-0.14552 0.11203,-0.26458 0.24896,-0.26458 0.13694,0 0.32256,0.11906 0.41249,0.26458 0.0899,0.14552 -0.0221,0.26458 -0.24896,0.26458 -0.22687,0 -0.41249,-0.11906 -0.41249,-0.26458 z m -1.32292,-0.24519 c 0,-0.13485 -0.20836,-0.29963 -0.46302,-0.36618 -0.39065,-0.10208 -0.39571,-0.12579 -0.0324,-0.15169 0.23684,-0.0169 0.57885,0.1479 0.76,0.36618 0.22757,0.27421 0.23759,0.39688 0.0324,0.39688 -0.16334,0 -0.29698,-0.11033 -0.29698,-0.24519 z m -127,-2.66523 c 0.274015,-0.512 1.058334,-0.7473 1.058334,-0.3175 0,0.33318 -0.599373,0.84667 -0.988268,0.84667 -0.271279,0 -0.28754,-0.12281 -0.07007,-0.52917 z m 41.728923,-3.94342 c -0.578807,-0.97985 -0.600167,-1.72556 -0.0433,-1.51187 0.247621,0.095 0.34276,0.0478 0.239673,-0.11903 -0.09402,-0.15212 -0.09793,-0.56747 -0.0087,-0.92301 0.113927,-0.45392 0.34566,-0.64642 0.778174,-0.64642 0.338765,0 0.890495,-0.23812 1.226069,-0.52916 0.335573,-0.29105 0.830043,-0.52917 1.098817,-0.52917 0.268774,0 0.458917,-0.0893 0.422537,-0.19844 -0.03638,-0.10914 0.05292,-0.22704 0.198437,-0.26199 0.147588,-0.0355 0.260258,0.46178 0.254799,1.12448 -0.0072,0.87623 0.09286,1.18803 0.381299,1.18803 0.288566,0 0.257215,0.0979 -0.119589,0.37341 -0.280871,0.20538 -0.599918,0.31826 -0.708998,0.25085 -0.109077,-0.0674 -0.127418,0.0622 -0.04076,0.28804 0.08666,0.22584 0.27092,0.41062 0.409462,0.41062 0.138538,0 0.18152,0.11386 0.09551,0.25303 -0.08601,0.13916 -0.336029,0.18409 -0.555601,0.0998 -0.238557,-0.0915 -0.368247,-0.0212 -0.322255,0.17484 0.04233,0.18043 -0.146955,0.36538 -0.420637,0.411 -0.27368,0.0456 -0.617146,0.2025 -0.76326,0.34862 -0.177818,0.17782 -0.484044,0.12256 -0.926166,-0.16713 -0.641569,-0.42037 -0.655209,-0.41608 -0.475681,0.14956 0.264954,0.83479 -0.185579,0.71832 -0.719828,-0.18609 z m 80.889877,0.35695 c -0.49319,-0.39513 -0.48995,-0.40001 0.0817,-0.12298 0.32742,0.15867 0.59531,0.34383 0.59531,0.41147 0,0.20246 -0.13721,0.144 -0.67703,-0.28849 z M 20.308331,43.921881 c 0.399584,-0.74663 0.686145,-0.84674 0.730699,-0.25527 0.0214,0.2841 -0.07295,0.44742 -0.209659,0.36293 -0.136714,-0.0845 -0.248571,-0.0275 -0.248571,0.12657 0,0.15411 -0.123251,0.2802 -0.273892,0.2802 -0.188313,0 -0.187869,-0.16074 0.0014,-0.51443 z m 114.307889,-1.33765 c 0,-0.14553 0.11906,-0.26459 0.26458,-0.26459 0.14552,0 0.26458,0.11906 0.26458,0.26459 0,0.14552 -0.11906,0.26458 -0.26458,0.26458 -0.14552,0 -0.26458,-0.11906 -0.26458,-0.26458 z M 26.401634,41.558291 c 0,-0.1277 0.178594,-0.38041 0.396875,-0.56156 0.430797,-0.35753 0.484647,-0.27201 0.236276,0.37523 -0.170009,0.44304 -0.633151,0.57933 -0.633151,0.18633 z m 47.757293,-0.56156 c -0.08994,-0.14553 -0.03743,-0.26459 0.116676,-0.26459 0.154109,0 0.280199,0.11906 0.280199,0.26459 0,0.14552 -0.0525,0.26458 -0.116676,0.26458 -0.06417,0 -0.190262,-0.11906 -0.280199,-0.26458 z m 56.885413,0 c -0.0899,-0.14553 -0.0374,-0.26459 0.11668,-0.26459 0.15411,0 0.2802,0.11906 0.2802,0.26459 0,0.14552 -0.0525,0.26458 -0.11668,0.26458 -0.0642,0 -0.19026,-0.11906 -0.2802,-0.26458 z m -66.083946,-0.55309 c 0.185816,-0.71056 0.576341,-0.89798 0.527777,-0.25329 -0.02188,0.2904 -0.179787,0.58172 -0.350914,0.64739 -0.196855,0.0755 -0.261821,-0.0692 -0.176863,-0.3941 z m -33.829333,0.05 c 0.200091,-0.12674 0.363802,-0.54381 0.363802,-0.92682 0,-0.383 0.08823,-0.7509 0.196072,-0.81755 0.217543,-0.13445 0.09534,1.35384 -0.142798,1.73916 -0.08286,0.13406 -0.292452,0.24193 -0.465764,0.2397 -0.207706,-0.003 -0.191112,-0.0826 0.04869,-0.23449 z m -5.78776,-0.2594 c 0,-0.14552 0.119062,-0.33816 0.264583,-0.4281 0.145521,-0.0899 0.264583,-0.0445 0.264583,0.10106 0,0.14552 -0.119062,0.33817 -0.264583,0.42811 -0.145521,0.0899 -0.264583,0.0444 -0.264583,-0.10107 z m 12.224456,-1.05082 c -0.275563,-0.1748 -0.265467,-0.2823 0.05121,-0.54511 0.328985,-0.27304 0.387596,-0.23622 0.353094,0.22179 -0.02275,0.30204 -0.0458,0.54734 -0.05121,0.54511 -0.0054,-0.002 -0.164306,-0.10203 -0.353095,-0.22179 z m -1.905706,-0.40731 c 0,-0.0572 0.184777,-0.17488 0.410617,-0.26155 0.235458,-0.0904 0.341662,-0.046 0.248968,0.10398 -0.155379,0.25141 -0.659585,0.37186 -0.659585,0.15757 z m 2.655768,-0.58793 c 0.0158,-0.3722 1.833843,-2.38554 1.838212,-2.03568 0.0021,0.17332 -0.117068,0.3899 -0.264962,0.48131 -0.147894,0.0914 -0.189029,0.29542 -0.09141,0.45337 0.101211,0.16377 0.05532,0.21168 -0.106791,0.11149 -0.156353,-0.0966 -0.531934,0.13915 -0.834631,0.52396 -0.302694,0.38482 -0.54588,0.59431 -0.540418,0.46555 z m 3.297357,-0.48515 c 0,-0.37275 0.180689,-0.69514 0.42549,-0.75916 0.381698,-0.0998 0.386511,-0.0331 0.04677,0.6479 -0.459595,0.92128 -0.472255,0.92426 -0.472255,0.11126 z m 1.719792,0.38332 c 0,-0.14552 0.12609,-0.26458 0.280199,-0.26458 0.154109,0 0.206613,0.11906 0.116676,0.26458 -0.08994,0.14552 -0.216027,0.26458 -0.280199,0.26458 -0.06417,0 -0.116676,-0.11906 -0.116676,-0.26458 z m 82.682292,0 c -0.0966,-0.15633 0.2001,-0.26458 0.72521,-0.26458 0.48881,0 1.03063,-0.12006 1.20404,-0.26679 0.17341,-0.14674 0.25779,-0.18746 0.1875,-0.0905 -0.0703,0.097 0.005,0.33608 0.1669,0.53137 0.2392,0.28822 0.0674,0.35507 -0.91272,0.35507 -0.66408,0 -1.281,-0.11906 -1.37093,-0.26458 z m -85.328126,-1.32292 c 0.155761,-0.29104 0.39691,-0.52916 0.535887,-0.52916 0.138976,0 0.0488,0.23812 -0.200403,0.52916 -0.249198,0.29104 -0.490347,0.52917 -0.535884,0.52917 -0.04554,0 0.04464,-0.23813 0.2004,-0.52917 z m 5.556251,0.26459 c 0,-0.14553 0.126089,-0.26459 0.280199,-0.26459 0.154109,0 0.206613,0.11906 0.116676,0.26459 -0.08994,0.14552 -0.216027,0.26458 -0.280199,0.26458 -0.06417,0 -0.116676,-0.11906 -0.116676,-0.26458 z M 35.44768,36.516731 c 0.359323,-0.57537 1.008121,-0.9417 1.008121,-0.56922 0,0.12422 -0.302265,0.42391 -0.6717,0.66597 -0.654709,0.42898 -0.663221,0.42654 -0.336421,-0.0968 z m 2.627241,0.11437 c 0.235673,-0.29104 0.494165,-0.70776 0.574424,-0.92604 0.123859,-0.33685 0.14909,-0.33305 0.166817,0.0251 0.01148,0.23211 -0.247002,0.64883 -0.574424,0.92605 -0.590243,0.49973 -0.591663,0.49952 -0.166817,-0.0251 z m 87.614849,0.21387 c 0.25644,-0.0669 0.38687,-0.25008 0.28984,-0.40707 -0.10488,-0.1697 -0.0525,-0.20889 0.12906,-0.0966 0.50852,0.31428 0.34311,0.68867 -0.28985,0.65603 -0.45303,-0.0234 -0.48387,-0.0598 -0.12905,-0.15231 z m -8.78102,-0.33404 c -0.4902,-0.30296 -0.10812,-0.81019 0.59131,-0.78498 0.31883,0.0115 0.43013,0.0812 0.24732,0.15489 -0.18281,0.0737 -0.27016,0.23466 -0.19412,0.3577 0.20604,0.33338 -0.24049,0.5221 -0.64451,0.27239 z m -71.918647,-0.409 c 0.05285,-0.29104 0.24669,-0.49645 0.430766,-0.45646 0.184076,0.04 0.26516,-0.0398 0.180186,-0.17728 -0.08497,-0.13748 0.233601,-0.56681 0.707938,-0.95406 0.482804,-0.39416 0.608042,-0.57817 0.284514,-0.41804 -0.720526,0.35664 -0.956344,0.36343 -0.744997,0.0215 0.08994,-0.14552 0.04446,-0.26459 -0.101063,-0.26459 -0.145521,0 -0.332015,0.10911 -0.414436,0.24247 -0.08242,0.13336 -0.561409,0.20981 -1.064424,0.1699 -0.603985,-0.0479 -1.093756,0.0944 -1.442199,0.41899 -0.656857,0.61196 -0.700944,0.61081 -0.700944,-0.0182 0,-0.28036 0.08347,-0.45816 0.185483,-0.39511 0.102018,0.0631 0.553233,-0.1948 1.002705,-0.57301 0.548336,-0.46139 0.762328,-0.54461 0.650396,-0.25291 -0.139504,0.36353 -0.04219,0.40489 0.594246,0.25252 0.418587,-0.10022 0.932752,-0.31463 1.142587,-0.47647 0.290741,-0.22423 0.334241,-0.21555 0.182822,0.0365 -0.123359,0.20533 -0.0423,0.34327 0.213794,0.3638 0.993386,0.0797 2.163107,0.0433 2.529158,-0.0787 0.218281,-0.0727 0.307578,-0.0823 0.198437,-0.0212 -0.45148,0.25249 -0.15748,0.6187 0.363863,0.45323 0.354354,-0.11246 0.500515,-0.0785 0.395227,0.0919 -0.09189,0.14868 -0.01752,0.32645 0.165303,0.39504 0.197856,0.0742 0.06467,0.23722 -0.32908,0.4027 -0.363802,0.1529 -0.495023,0.28554 -0.291603,0.29476 0.203422,0.009 -0.0347,0.29259 -0.529167,0.62969 -0.494461,0.3371 -0.936479,0.52238 -0.982263,0.41174 -0.04578,-0.11065 -0.283905,-0.14075 -0.529166,-0.0669 -0.245258,0.0738 -0.118505,-0.0557 0.281678,-0.28789 0.400182,-0.2322 0.727604,-0.47106 0.727604,-0.53082 0,-0.20435 -1.111732,0.10507 -1.482204,0.41254 -0.203433,0.16884 -0.369879,0.21829 -0.369879,0.10989 0,-0.1084 -0.178594,-0.0489 -0.396875,0.13229 -0.218282,0.18116 -0.398698,0.2255 -0.400926,0.0985 -0.0021,-0.12695 -0.127693,-0.0522 -0.278808,0.16605 -0.225832,0.32621 -0.257646,0.30265 -0.178673,-0.1323 z m 5.907437,0.16781 c -0.113974,-0.18442 -0.135773,-0.40676 -0.04844,-0.49409 0.236794,-0.23679 0.494974,0.11147 0.36708,0.49515 -0.08962,0.26887 -0.151942,0.26866 -0.318638,-10e-4 z m 68.05865,0.0483 c 0.19099,-0.0764 0.4192,-0.067 0.50712,0.0209 0.0879,0.0879 -0.0683,0.15046 -0.34727,0.13897 -0.30822,-0.0127 -0.37092,-0.0754 -0.15985,-0.15985 z m 2.91042,-0.26458 c 0.19099,-0.0764 0.4192,-0.067 0.50711,0.0209 0.0879,0.0879 -0.0684,0.15045 -0.34726,0.13897 -0.30823,-0.0127 -0.37092,-0.0754 -0.15985,-0.15985 z m -77.870184,-0.8776 c -0.08994,-0.14552 0.02913,-0.26458 0.264583,-0.26458 0.235459,0 0.372973,-0.0893 0.305589,-0.19844 -0.06739,-0.10914 0.187783,-0.21711 0.567042,-0.23992 l 0.68956,-0.0415 -0.648804,0.49862 c -0.744741,0.57236 -0.949716,0.61513 -1.17797,0.24581 z m 73.355724,0.0779 c 0.32742,-0.0631 0.86321,-0.0631 1.19063,0 0.32742,0.0631 0.0595,0.11466 -0.59531,0.11466 -0.65485,0 -0.92274,-0.0516 -0.59532,-0.11466 z m 5.04362,0.006 c 0.191,-0.0764 0.4192,-0.067 0.50712,0.0209 0.0879,0.0879 -0.0683,0.15045 -0.34726,0.13896 -0.30823,-0.0127 -0.37092,-0.0754 -0.15986,-0.15985 z m -3.12539,-0.44985 c 0,-0.0558 0.23829,-0.16375 0.52953,-0.23991 0.29125,-0.0762 0.46281,-0.0305 0.38126,0.10143 -0.14241,0.23043 -0.91079,0.34725 -0.91079,0.13848 z m -68.262495,-0.42774 c 0.518152,-0.33485 0.86841,-0.33485 0.661458,0 -0.08994,0.14552 -0.364855,0.26276 -0.610928,0.26053 -0.38557,-0.003 -0.392555,-0.0395 -0.05053,-0.26053 z m 57.149995,0.0111 c 0,-0.13029 -0.20836,-0.29133 -0.46302,-0.35788 -0.25466,-0.0666 -0.0233,-0.13481 0.51417,-0.15169 0.69008,-0.0217 1.10038,-0.2056 1.39652,-0.62601 0.27216,-0.38637 0.48636,-0.49316 0.61031,-0.30425 0.10504,0.16008 0.36957,0.35376 0.58785,0.4304 0.25816,0.0906 0.11944,0.20973 -0.39687,0.34073 -0.43656,0.11077 -0.91281,0.28556 -1.05833,0.38843 -0.50131,0.35436 -1.19063,0.51663 -1.19063,0.28027 z m -1.38906,-1.24466 c 0.1819,-0.0734 0.47956,-0.0734 0.66146,0 0.1819,0.0734 0.0331,0.13345 -0.33073,0.13345 -0.3638,0 -0.51263,-0.0601 -0.33073,-0.13345 z"
       id="path3724"
       inkscape:connector-curvature="0" />
  </g>
</svg>
